<svg height="32" viewBox="0 0 89 32" width="89" xmlns="http://www.w3.org/2000/svg"><path d="m78.624 8.704h5.632v2.912h-5.632v.544h-10.4v-.544h-.704v1.28l-.384.416h-.64v1.184h1.536v-.448h4.256v2.016h-4.256v-.352h-1.568v.384l-.864.832h-2.496l-1.088.416h-14.848l-1.312-.416h-.32v8.512l-.48.416h-8.928l-.576-.576v-2.016l-.864.864v.672l-.416.768-1.28-.416-.48.416-12.224-3.2-.384-.384.96-.544.032-.864.288-1.376.512-1.216 1.152-1.76.96-1.088.448-.352-.128-.32v-.832l-1.824-.832h-10.368l-4.8 2.784-.192 1.344-.256.32-2.176.576-.416-.128.224-2.368.128-3.744-.128-2.944-.128-1.856.032-.704.224-.352h1.248l.192.192h.864l.32.352v.672h14.848l.288.32 2.464-.608.544-.512.672-.448.608-.128.096.096v.448h.992v-1.376l.768-.512h.256v-1.152h.672v1.152h.608l1.696.992v.896h6.368l2.112.8h8.448v-.736l.256-.288h5.024l2.144 1.088h4.768l1.024-.96h4.384l.16.16v1.44h1.024l.224.224v.832h.704v-.544h10.4zm-47.36 13.728 2.784-6.976-.096-.512-.256-.352-.544-.128h-3.84l-.128.704.16.96.256.416-.16.224-.224-.16-.352-.544-.256-.768-.096-.832h-.128l-.352.288-.256.576.064.736.32.544.448.448-.16.416h-.672l-.512.16-.416.48-.192.672-.192.704-.448.544-.512.768-.384.928.096.224 4.544 1.248.608-.096.48-.224z"/></svg>