<svg height="32" viewBox="0 0 79 32" width="79" xmlns="http://www.w3.org/2000/svg"><path d="m59.776 13.824q.544 0 .944.4t.4.976q0 .544-.4.944t-.944.4h-55.68v-2.72zm7.968 1.408 6.24 4.448-7.648-.064 2.4 7.264-6.144-4.544-2.304 7.296-2.304-7.296-6.176 4.544 2.432-7.264.256-.768h5.376q1.504 0 2.576-1.072t1.072-2.576-1.072-2.576-2.576-1.072h-5.376l-.256-.704-2.432-7.296 6.176 4.576 2.304-7.328 2.304 7.328 6.144-4.576-2.4 7.296 7.648-.064zm-26.976 4.384v-.768h13.728v.768zm8.192-8.064v-.768h5.536v.768zm-14.656 0v-.768h10.208v.768zm-7.456 0v-.768h2.56v.768zm-7.328 0v-.768h1.056v.768zm-5.92 0v-.768h1.056v.768zm17.76 8.064v-.768h4.096v.768zm-8.608 0v-.768h.928v.768z"/></svg>