<svg height="32" viewBox="0 0 32 32" width="32" xmlns="http://www.w3.org/2000/svg"><path d="m32 15.998c-1.895 3.578-4.306 6.628-7.635 8.86-5.716 3.837-12.477 3.488-18.017-.92-2.685-2.135-4.718-4.807-6.349-7.901.662-1.366 1.392-2.539 2.227-3.627l-.036.049c1.837-2.498 4.004-4.65 6.768-6.105 4.813-2.535 9.645-2.489 14.384.182 3.871 2.195 6.541 5.539 8.657 9.461zm-4.771.034c-1.569-2.897-3.541-5.299-6.41-6.848-1.956-1.053-4.057-1.474-6.251-1.114-4.757.784-7.563 3.994-9.777 7.863 1.232 2.801 3.929 5.669 6.512 6.986 2.045 1.039 4.202 1.404 6.439.971 4.544-.883 7.267-3.999 9.484-7.858z"/><path d="m18.221 21.438c-.532-.341-.537-1.109-1.14-1.465-.465.608-.044 1.327-.317 2.017-.385-.598-.269-1.327-.729-1.874-.622.45-.383 1.264-.814 1.83-.285-.644.13-1.363-.293-1.97-.659.341-.668 1.179-1.264 1.614-.051-.709.47-1.302.264-2.029-.692.221-.958.908-1.607 1.259.118-.729.753-1.164.799-1.901-.739-.038-1.181.615-1.913.77.341-.647.983-.946 1.29-1.591-.768-.256-1.363.296-2.065.227.44-.552 1.225-.615 1.603-1.203-.288-.341-.647-.22-.97-.239s-.607 0-1.073 0c.647-.525 1.401-.365 1.932-.852-.511-.559-1.302-.392-1.951-.828.729-.157 1.384.046 2.045-.184-.298-.76-1.164-.731-1.554-1.31.682-.07 1.264.446 1.937.249.026-.445-.351-.584-.547-.84s-.486-.39-.642-.784c.699.152 1.157.75 1.908.804-.063-.751-.607-1.203-.835-1.91.682.278.939 1.022 1.627 1.244.232-.746-.298-1.344-.25-2.065.547.48.658 1.227 1.237 1.68.453-.627.075-1.317.305-1.978.446.53.278 1.28.746 1.799.622-.434.365-1.268.852-1.835.181.682-.07 1.338.215 1.997.717-.353.714-1.223 1.324-1.632 0 .682-.431 1.269-.312 1.985.755-.109.959-.877 1.6-1.172-.061.699-.738 1.128-.743 1.874.746 0 1.172-.632 1.903-.774-.341.637-.995.917-1.256 1.574.753.245 1.348-.286 2.026-.227-.405.579-1.222.608-1.632 1.242.629.414 1.307.066 1.971.262-.499.498-1.297.279-1.811.808.484.538 1.242.356 1.811.774-.637.266-1.314-.078-1.936.273.341.673 1.121.724 1.607 1.249-.702.114-1.283-.423-1.98-.242.085.71.842.903 1.07 1.469l-.072.073c-.59-.101-.978-.666-1.649-.71-.09.751.596 1.177.741 1.884-.682-.247-.898-1.038-1.605-1.193-.288.682.371 1.254.145 1.888zm-4.836-5.581c-.002.039-.003.085-.003.13 0 1.389 1.108 2.519 2.488 2.555h.003.045c1.391 0 2.527-1.087 2.607-2.457v-.007c.001-.027.002-.058.002-.09 0-1.37-1.069-2.49-2.419-2.572h-.007c-1.487-.065-2.656.983-2.716 2.44z"/><path d="m20.649 19.522c.061.032.128.06.084.15-.087.044-.128 0-.155-.077z"/><path d="m18.209 21.457c.077-.077.106-.034.119.051-.092.061-.095-.01-.107-.07z"/></svg>