<svg height="32" viewBox="0 0 32 32" width="32" xmlns="http://www.w3.org/2000/svg"><path d="m31.04 22.272c-.016.065-.025.14-.025.216v.008c.022.09.05.169.086.243l-.003-.007c-.217.154-.471.313-.733.46l-.044.022c-.492.244-.915.538-1.288.885l.003-.003c-.124.133-.301.216-.497.216-.006 0-.012 0-.019 0h.001c-.122.009-.234.029-.343.06l.012-.003-.251-.456-1.33.265c.048-.379.319-.676.13-1.061-.305-.269-.688-.457-1.11-.529l-.013-.002-.724.418c-.013-.052-.021-.111-.021-.172 0-.012 0-.024.001-.036v.002c.035-.157.087-.311.132-.468-.261-.28-.588-.34-.901-.413-.083-.017-.185.042-.266.088-.154.088-.297.197-.45.287-.057.023-.124.039-.193.046h-.003c-.031-.287.213-.508.097-.791l-.887-.356-.744.49-.127-.09c.089-.293.231-.563.198-.905l-.641-.342-1.206.691c-.093-.312.226-.533.1-.835-.061 0-.14-.033-.189-.007-.425.223-.844.452-1.083.91-.346.657-.413 1.292.054 1.929.166.247.353.462.564.65l.003.003c.385-.091.662-.39 1.079-.528l-.314.864c.19.291.557.27.811.471.413-.198.776-.496 1.284-.71l-.35.983c.191.248.506.274.765.391.381-.173.683-.465 1.115-.595 0 .35-.256.575-.282.901.19.194.425.146.655.045.376-.165.744-.344 1.121-.514.094-.043.194-.07.325-.117.055.389-.255.641-.237.986.217.237.516.065.791.138l.076.146c-.102.389-.17.767-.3 1.124-.314.858-.893 1.484-1.781 1.746-.109.032-.234.05-.363.05-.246 0-.477-.066-.676-.181l.006.003c-.835-.442-1.696-.839-2.546-1.255-.406-.198-.801-.423-1.217-.595-.52-.214-1.062-.375-1.637-.311-.791.088-1.585.128-2.378.189-.867.066-1.732.049-2.596.034-.017-.001-.037-.001-.057-.001-.335 0-.648.095-.913.259l.007-.004c-.055.033-.109.067-.22.136.345-.698.786-1.18 1.507-1.352.368-.084.67-.173.965-.277l-.061.019c.522-.194.962-.501 1.309-.894l.003-.004c.037-.065.073-.142.105-.223l.004-.013c-.11.103-.227.202-.35.294l-.011.008c-.496.366-1.066.557-1.665.649-.769.118-1.341.538-1.785 1.14-.163.232-.377.418-.625.545l-.01.005c-.945.478-1.715 1.179-2.383 1.991-.331.405-.641.833-.987 1.287.117-.614.419-1.123.597-1.725-1.282.689-2.187 1.714-3.029 2.873-.053-.09-.109-.199-.158-.311l-.008-.02c-.165-.462-.319-.935-.356-1.424-.057-.775.127-1.495.662-2.092.209-.232 2.154-1.877 2.168-1.893-.01.021-1.681 1.264-1.737 1.314-.364.312-.679.666-.942 1.056l-.012.019c-.051.083-.117.151-.187.24-.689-.703-1.528-1.257-2.465-1.61l-.047-.016.643-.436c.013-.978-.227-1.877-.985-2.682.379.083.666.153.954.217.992.222 1.902.067 2.673-.642q.563-.514 1.144-1.009c.631-.538 1.373-.781 2.197-.79.007 0 .015.001.024.001.096 0 .185-.026.262-.071l-.002.001c-.074-.031-.159-.056-.249-.07l-.006-.001c-.93-.015-1.799.191-2.541.777-.413.323-.796.675-1.185 1.024-.3.269-.611.519-1.016.6-.175.039-.377.062-.584.062-.024 0-.047 0-.071-.001h.003c-.615-.021-1.192-.165-1.654-.592-.112-.473-.18-.952-.343-1.396-.157-.43-.413-.827-.632-1.248.264-.284.612-.419.952-.551.44-.168.952-.293 1.483-.351l.028-.003c.61-.077 1.215-.184 1.819-.295.752-.137 1.501-.289 2.25-.442.247-.049.467-.129.669-.238l-.013.006-1.075.165c-.496.083-.997.165-1.499.231-.651.083-1.303.157-1.956.23-.326.036-.654.059-.981.092-.503.05-.951.253-1.374.513-.314.194-.612.413-.94.641.005-.083.017-.16.036-.235l-.002.009c.347-1.043 1.05-1.781 1.976-2.336.81-.485 1.763-.822 2.781-.949l.035-.004c.502-.066 1.019-.011 1.528-.036.891-.044 1.782-.083 2.668-.17.596-.06 1.188-.188 1.724-.485.029-.024.055-.051.075-.081l.001-.001.046-.053-.035.064c-.222.057-.449.104-.667.174-.442.138-.951.218-1.478.218-.006 0-.011 0-.017 0h.001c-1.128.019-2.256-.008-3.383.006-1.527.019-2.904.484-4.098 1.446-.218.193-.417.393-.602.607l-.007.008c-.028.045-.048.097-.058.153v.003l-.089-.067c.034-.361.072-.721.101-1.082.035-.423.102-.849-.041-1.263-.083-.23-.185-.451-.298-.72.145-.109.31-.219.482-.318l.024-.013c1.17-.589 2.169-1.206 3.11-1.898l-.06.042c.353-.255.753-.446 1.13-.668.106-.057.197-.116.283-.181l-.005.004c-.04.025-.668.226-.92.352-.705.357-1.31.742-1.874 1.178l.027-.02c-.248.192-.517.362-.768.552-.432.331-.934.482-1.47.637.295-.875.372-1.758.512-2.63.116-.749.274-1.407.48-2.043l-.026.092c.275-.847.882-1.251 1.69-1.432.261-.059.531-.083.827-.123l-1.137-.787c1.433.427 2.791.797 4.225.95.253-.27.474-.538.727-.77.28-.258.582-.504.9-.73l.028-.019c.185-.12.334-.28.437-.47l.003-.007c.311-.626.558-1.269.613-1.985.061-.638.148-1.205.266-1.761l-.018.1c.117-.616.241-1.233.404-1.839.137-.513.323-1.014.508-1.513.036-.098.17-.159.248-.229.753.165 1.131.694 1.389 1.323.35.846.589 1.737 1.021 2.549.496.931 1.016 1.848 1.53 2.771.133.239.277.472.414.709.232.396.555.672 1.016.763.419.083.744.32 1.059.596.516.452 1.064.863 1.693 1.158.753.353 1.406.857 2.008 1.423.289.276.611.522.959.731l.025.014c.875.514 1.51 1.26 2.016 2.13.27.461.521.936.93 1.302.095.083.142.224.241.385.137.064.323.16.331.407.265.215.513.457.799.639.439.28.91.507 1.355.778.333.21.617.413.888.631l-.018-.014c.562.44 1.116.889 1.753 1.222.461.241.91.496 1.365.758.144.081.251.213.3.37l.001.005c.136.418.111.81-.138 1.178-.026.039-.083.058-.126.083 0 0 .053-.193.074-.29-.083-.16-.223-.16-.35-.096-.237.119-.465.256-.625.477-.013.018-.026.037-.039.056.094-.057.203-.101.319-.125l.007-.001zm-15.575 1.284c-.449.404-.983.626-1.559.782-.443.133-.811.274-1.166.437l.057-.023c-.164.087-.306.184-.435.296l.003-.002c.039-.023.203-.07.237-.088.425-.212.918-.38 1.435-.48l.037-.006c.426-.084.8-.265 1.111-.52l-.004.004c.193-.16.587-.598.614-.626s.349-.457.363-.474c-.011.023-.624.639-.691.701zm7.726 2.793c.137.108.496.312.516.331-.021-.012-1.258-1.136-1.276-1.149.021.005.545.649.758.818zm-21.133-12.702c.241-.221.488-.435.721-.662.774-.762 1.701-1.191 2.786-1.214.785-.007 1.55-.072 2.296-.193l-.087.011c.322-.055.642-.12.963-.18-.046-.037-.105-.059-.169-.059-.015 0-.03.001-.044.004h.002c-.392.046-.782.122-1.175.14-.604.026-1.21.028-1.814.012-.669-.017-1.265.195-1.824.527-.653.384-1.127.963-1.628 1.507-.022.024-.127.236-.141.253.036-.055.074-.103.116-.147l-.001.001zm19.089-1.364c-.024-.011-.514-.309-.673-.366-.692-.244-1.406-.198-2.116-.127-.271.027-.544.118-.811.101-.565-.037-1.089-.178-1.564-.405l.026.011c-.051-.02-.114-.039-.178-.054l-.009-.002c.331.261.728.457 1.161.558l.02.004c.293.06.594.142.886.126.529-.031 1.055-.134 1.584-.194.04-.004.087-.006.134-.006.112 0 .221.011.326.033l-.01-.002c.334.059 1.205.308 1.225.322zm-9.238 7.66-.165.083c-.005 0-.011 0-.017 0-.037 0-.072.006-.106.016l.003-.001c-.777.403-1.587.442-2.429.248-.492-.113-.992-.191-1.489-.276-.269-.045-.543-.062-.812-.108-.168-.034-.362-.053-.56-.053-.611 0-1.179.182-1.653.495l.011-.007c-.029.018-.491.384-.504.401.008-.021.534-.298.566-.317.686-.404 1.424-.445 2.182-.303.832.156 1.661.323 2.503.428.141.019.304.03.47.03.624 0 1.212-.155 1.727-.428l-.02.01c.051-.026.083-.095.121-.145l.165-.083.044-.049zm12.209 1.591c-.049-.007-1.095-.509-1.389-.615-.185-.066-.656-.202-.698-.226.068.061.145.115.228.158l.006.003c.281.121.563.241.849.351.146.062.997.347 1.004.332zm1.437-4.579.055.04-.065-.03c-.218-.212-.304-.242-.562-.194.171.141.351.222.572.184zm-7.121 3.391 1.22-.518c-.027-.002-.059-.003-.092-.003-.268 0-.52.074-.734.203l.006-.004c-.148.083-.331.136-.391.331-.022.01-.045.021-.019.008-.014.026-.002.004.009-.017zm3.473-6.358-.06-.038.069.028 1.24 1.003c-.203-.377-.61-.791-.896-.91-.1-.034-.219-.063-.342-.081l-.012-.001zm4.824 4.348c.022.008.165.147.227.188.529.342 1.763.534 1.755.521l-.027-.012c-.099-.063-.213-.123-.332-.173l-.015-.006c-.516-.166-1.59-.505-1.608-.518zm-8.173-1.941c.082.066.174.125.272.173l.009.004c.45.213.974.348 1.528.371h.008c.392.018.796.078 1.265-.136-.299 0-.505-.006-.709 0-.591.02-1.171-.031-1.737-.241-.157-.06-.595-.146-.636-.171zm-6.66-11.917-.05-.045.061.035 1.4 2.068c-.146-.797-.724-1.676-1.332-2.061-.018-.008-.052.004-.079.004zm-6.368 16.527c.125-.049.248-.095.374-.148.367-.158.739-.257 1.149-.189.526.089 1.051.197 1.59.183.111 0 .222-.014.382-.024-.59-.127-1.122-.243-1.654-.353-.705-.146-1.323.008-1.827.542l-.044.057zm6.203-8.753c-.011-.019-.021-.039-.012-.023l.025.012c.441.341.961.605 1.526.761l.031.007c.566.159 1.147.2 1.721.294.104.01.225.016.348.016.066 0 .131-.002.196-.005h-.009c.037.003.081.004.124.004.141 0 .279-.015.412-.043l-.013.002c-.339-.065-.677-.091-1.015-.13-.257-.029-.514-.064-.768-.113-.874-.183-1.641-.434-2.369-.756l.075.03c-.079-.025-.172-.045-.268-.055l-.006-.001zm-6.699.068c.365-.094.734-.083 1.102-.067.057.002.124.003.191.003.623 0 1.223-.1 1.785-.284l-.04.011c.382-.117.784-.212 1.1-.487l.045-.054-.037.065c-.092.017-.185.026-.275.05-.34.09-.675.201-1.018.275-.719.155-1.455.173-2.183.248-.338.036-1.141.263-1.254.273.123.059.48-.005.581-.031zm14.746-.96c-.117-.008-1.351-.265-1.875-.356-.403-.07-.809-.127-1.207-.215-.728-.165-1.386-.496-2.03-.862-.099-.051-.22-.104-.345-.149l-.023-.007-.01-.022c-.022-.011.098.124.151.159.287.188.571.382.869.549.737.413 1.504.731 2.37.722.083 0 .165.017.248.023.525.045 1.722.214 1.848.16zm-7.375-3.419.011.019c.025.01 0 0-.021-.009-.083-.075-.172-.147-.266-.214l-.009-.006c-.643-.392-1.103-1.031-1.25-1.782l-.003-.017c-.058-.264-.097-.571-.107-.885v-.008c-.028-.863-.069-1.728.051-2.589.006-.078.009-.169.009-.261s-.003-.183-.01-.274l.001.012c-.101.318-.184.697-.234 1.087l-.003.033c-.043.312-.055.628-.102.938-.038.235-.06.505-.06.78 0 .301.026.596.076.883l-.004-.031c.161.965.637 1.704 1.507 2.173.133.07.241.195.414.151zm6.802 6.675c.339.356.706.681 1.158.9.579.281 1.162.543 1.715.929-.131-.262-.248-.491-.361-.719-.078-.174-.153-.316-.236-.454l.011.019c-.19-.289-.408-.571-.77-.629-.276-.044-.552-.122-.849-.041-.202.053-.428.002-.668-.004zm-4.294-.927c-.579-.103-1.158-.165-1.724-.32s-1.116-.39-1.705-.602c1.016.886 2.214.968 3.428.922zm9.122 1.915c-.178-1.002-.627-1.848-1.441-2.488.615.753.959 1.659 1.44 2.488zm.811 1.516c-.872-.588-1.556-.716-2.118-.409.088-.009.191-.014.295-.014.391 0 .764.073 1.108.206l-.021-.007c.241.085.49.153.735.224zm-5.742-2.947c-.725-.116-1.303.083-1.801.547zm2.702 3.073h-1.807c.639.299 1.223.255 1.805 0zm7.43 6.194c-.47.103-.892-.035-1.311-.198-.066-.026-.135-.045-.267-.088.696.633 1.095.567 1.576.285zm-5.217 2.646c.285.361.711.609.838 1.166.043-.602-.174-.894-.839-1.17zm4.057-6.576c.443.355.933.112 1.413.033zm-19.233-8.463c-.042-.014-.091-.024-.142-.027h-.002c-.27.018-.538.045-.807.063-.141.009-.424.065-.423.092h1.092c.087-.004.168-.018.246-.039l-.008.002c.015-.005.022-.043.044-.09zm-.192-.264-.923.083c.313.024.636.136.923-.083z"/></svg>