<svg height="32" viewBox="0 0 32 32" width="32" xmlns="http://www.w3.org/2000/svg"><path d="m0 9.938c.053-.029.107-.014.159-.014q2.414 0 4.829-.003c.006 0 .013-.001.021-.001.094 0 .177.044.231.113v.001q3.364 3.97 6.733 7.938c.243.286.491.568.726.859.086.107.124.087.203-.006q2.022-2.391 4.051-4.776 1.71-2.015 3.419-4.031c.05-.059.098-.097.184-.097q2.48.005 4.961.003c.024 0 .048.003.074.005.006.068-.048.097-.08.136q-5.047 5.95-10.095 11.902c-.054.07-.138.114-.232.114-.007 0-.014 0-.021-.001h.001q-2.37-.004-4.74 0c-.005 0-.012.001-.018.001-.09 0-.17-.042-.221-.108v-.001q-3.857-4.552-7.719-9.101-1.188-1.4-2.376-2.8c-.033-.039-.081-.071-.089-.132z"/><path d="m32 9.931c-.25.296-.482.57-.714.843q-4.709 5.55-9.415 11.101c-.121.143-.241.207-.435.206-1.565-.009-3.13-.005-4.695-.005h-.178c-.016-.07.035-.096.064-.131q4.762-5.612 9.525-11.223c.201-.237.403-.474.603-.711.047-.056.093-.089.173-.089q2.489.004 4.977.002c.019-.002.038.002.095.007z"/><path d="m19.233 9.934c-.405.479-.798.944-1.19 1.407q-.782.923-1.565 1.845-.726.855-1.454 1.708-.774.912-1.544 1.824c-.204.24-.411.477-.612.719-.066.08-.11.069-.17-.004-.406-.49-.813-.981-1.224-1.467-.248-.294-.507-.577-.755-.871-.305-.36-.6-.727-.905-1.087s-.621-.711-.926-1.07-.6-.726-.904-1.085c-.245-.289-.499-.569-.744-.859s-.492-.588-.736-.884c-.045-.055-.121-.085-.143-.176z"/></svg>