<svg height="32" viewBox="0 0 30 32" width="30" xmlns="http://www.w3.org/2000/svg"><path d="m3.57 4.514.063.127c.136.326.254.657.418.97.198.323.454.591.755.798l.009.006c.902.714 1.806 1.421 2.697 2.145s1.782 1.478 2.673 2.218c.029.024.063.043.101.054h.002c-.851-.967-1.753-1.841-2.719-2.641l-.04-.032-.039-.033.024-.042h.096c.694.114 1.39.219 2.082.366.534.103 1.062.219 1.434.676.136.16.247.344.372.508.048.063.105.123.184.219.175-.805.293-1.745.328-2.706l.001-.029-.046-.018c-.033.06-.067.132-.096.207l-.004.012v.013c-.026.081-.031.171-.05.254-.015.033-.032.062-.053.088l.001-.001c-.028-.024-.07-.044-.083-.074-.078-.165-.124-.359-.124-.564s.046-.398.127-.572l-.003.008c.116-.247.265-.475.392-.7-.175.018-.377.048-.578.055-.258 0-.458-.103-.499-.278h.25.001c.247 0 .457-.162.528-.386l.001-.004c.123-.296.252-.591.398-.876.03-.056.048-.123.048-.194 0-.001 0-.002 0-.003 0-.062-.013-.122-.036-.176l.001.003c-.112-.323-.29-.599-.518-.823-.086-.079-.2-.13-.325-.136h-.001-.035c-.002 0-.005 0-.008 0-.178 0-.349.026-.51.075l.012-.003h.013c-.068.029-.147.046-.23.046-.197 0-.371-.095-.48-.242l-.001-.002c-.083-.09-.181-.164-.292-.216l-.006-.002c-.068-.042-.151-.067-.24-.067-.213 0-.393.144-.447.339l-.001.003c-.024.063-.046.127-.079.219-.043-.031-.08-.064-.113-.102l-.001-.001c-.144-.204-.229-.457-.229-.731 0-.428.211-.808.534-1.04l.004-.003c.13-.093.283-.162.449-.2l.008-.002c.177-.059.344-.149.517-.219.119-.052.258-.084.404-.088h.001c.484.028.965.081 1.449.12.167.021.36.033.555.033h.024.095.02c.403 0 .74-.286.817-.667l.001-.005c.011-.046.025-.086.043-.124l-.002.004c.022-.031.045-.058.07-.083.022.028.053.055.059.085.068.315.039.718-.344.917-.142.07-.282.144-.458.236l.438.162.438.169-.306.254c.326.219.729.328.917.703l-.022.039c-.065-.024-.121-.051-.174-.082l.005.003c-.139-.093-.31-.149-.495-.149-.118.003-.229.028-.33.072l.006-.002c.305.352.56.758.746 1.201l.011.03v.031c.177.458.366.917.558 1.401-.254-.079-.396-.287-.626-.394.066.127.127.252.193.374.192.305.324.666.369 1.054l.001.012v.068c0 .123-.014.243-.039.359l.002-.011v-.011c-.157-.28-.339-.521-.55-.734-.232.394.363 2.511.832 2.938.486-.499 1.04-2.469.803-2.909-.136.089-.248.206-.328.343l-.003.005c-.044.07-.074.149-.114.219-.028.028-.061.052-.096.071l-.002.001c-.02-.029-.036-.062-.045-.098l-.001-.002c-.001-.02-.002-.043-.002-.066s.001-.046.002-.069v.003s0-.001 0-.002c0-.261.058-.509.162-.731l-.004.011v.011c.123-.271.261-.534.407-.832l-.639.438-.035-.035c.011-.045.026-.084.045-.121l-.002.003c.236-.547.477-1.112.753-1.659.157-.281.322-.523.505-.75l-.008.01c.066-.092.057-.129-.046-.166-.043-.011-.092-.018-.142-.018-.001 0-.002 0-.003 0-.108 0-.21.032-.294.087l.002-.001c-.134.061-.261.136-.392.201-.015.008-.033.013-.053.013-.001 0-.002 0-.002 0h-.026c.193-.42.552-.637 1.009-.781l-.169-.123-.153-.114.847-.337c-.361-.188-.768-.298-.832-.749 0-.05 0-.107 0-.164.001-.127.009-.252.023-.375l-.002.016v.015h.061c.02.055.042.114.057.164.058.292.255.528.517.639l.006.002c.098.036.211.057.329.057h.006.083c.525-.035 1.049-.085 1.574-.131.074-.002.145-.01.214-.023l-.008.001c.042-.004.09-.007.139-.007.278 0 .538.076.761.21l-.007-.004c.097.051.209.091.327.115l.008.001c.382.048.69.315.797.67l.002.007c.066.158.105.341.105.534 0 .212-.047.413-.131.593l.004-.009c-.053.092-.107.17-.167.244l.003-.003c-.031-.057-.061-.124-.087-.193l-.003-.01v-.011c-.079-.344-.392-.545-.81-.219-.09.072-.17.149-.241.234l-.002.003c-.081.107-.208.175-.35.175-.002 0-.003 0-.005 0-.001 0-.002 0-.002 0-.036 0-.072-.005-.105-.014l.003.001c-.162-.031-.324-.066-.484-.099-.045-.015-.097-.024-.151-.024-.191.002-.355.112-.436.271l-.001.003c-.155.252-.306.508-.438.771-.01.032-.015.068-.015.106 0 .055.012.108.034.155l-.001-.002c.094.239.219.464.302.703s.193.458.458.528c.085.011.184.018.284.018h.002c.079 0 .158 0 .236-.011-.023.044-.049.082-.079.117v-.001c-.139.113-.318.182-.513.182-.001 0-.001 0-.002 0-.018.001-.039.002-.06.002s-.042-.001-.063-.002h.003l-.506-.09c.556.593.755 1.224.392 1.957-.103-.197-.048-.46-.28-.637.023 1.001.122 1.961.291 2.897l-.017-.113-.015-.112.044.015c.079-.096.155-.195.236-.289.179-.223.359-.422.549-.61l.001-.001c.281-.221.627-.371 1.005-.421l.011-.001c.687-.14 1.384-.258 2.077-.385l.219-.039.031.046-3.054 2.894.035.039c.123-.098.245-.193.366-.293.766-.641 1.532-1.287 2.299-1.918.67-.547 1.355-1.077 2.034-1.611.46-.357.917-.694 1.362-1.068.446-.397.759-.934.873-1.542l.003-.017v-.018c.018-.061.039-.113.064-.163l-.002.005c.262.366.474.791.613 1.247l.008.031v.031c.056.189.088.406.088.631v.002c0 .24-.036.472-.103.691l.004-.017v-.018c-.115.369-.371.665-.703.83l-.008.004c-.738.414-1.482.823-2.215 1.239-.83.475-1.664.941-2.478 1.447-1.15.724-2.126 1.419-3.062 2.163l.069-.053.072-.055c-.046.039-.09.077-.129.116l.022.026c.164-.114.331-.219.495-.35.601-.432 1.303-.881 2.027-1.294l.249-.131c.727-.416 1.447-.845 2.176-1.25.657-.368 1.34-.716 2.014-1.066.438-.219.876-.425 1.313-.646.342-.167.629-.334.903-.518l-.027.017-.028.018c.162-.132.305-.276.434-.432l.004-.005c.033-.035.059-.072.107-.134.049.136.077.292.077.455 0 .243-.062.472-.172.671l.004-.007c-.081.151-.19.277-.321.374l-.003.002c-.845.549-1.637 1.171-2.443 1.775-.708.537-1.518.998-2.386 1.347l-.071.025-.07.024c-.517.199-1.051.344-1.578.514-.468.151-.941.296-1.412.438-.073.029-.134.059-.193.094l.007-.004.011.035 2.513-.475.031.037c-.031.042-.063.079-.098.114-.403.306-.808.617-1.219.917-.208.158-.445.318-.692.464l-.035.019-.037.02c-.231.121-.504.193-.794.193-.001 0-.002 0-.003 0-.066 0-.131 0-.197-.011-.101 0-.219 0-.335 0h-.16c-.048 0-.092.055-.138.085.037.039.07.114.114.114.552.081 1.11.193 1.648-.061.227-.122.414-.236.594-.358l-.023.015c.224-.12.49-.19.772-.19h.007.015l3.494-.085c.149 0 .294.014.435.039l-.015-.002h-.015c-.031.04-.064.075-.1.107l-.001.001c-.644.468-1.285.939-1.933 1.403-.165.122-.355.246-.551.359l-.029.015-.031.015c-.202.108-.442.171-.697.171-.001 0-.003 0-.004 0-.15 0-.294-.022-.431-.062l.011.003c-.698-.171-1.39-.361-2.082-.547-.331-.09-.657-.188-.989-.28-.068-.02-.149-.057-.186.046-.009.019-.015.04-.015.063 0 .053.03.099.074.122h.001c.012.005.027.01.042.013h.002l.784.25 1.423.458.976.317c.02 0 .039.018.077.068-.158.077-.309.16-.468.219-.736.311-1.5.291-2.27.177-.335-.048-.674-.063-1.009-.12-.032-.006-.068-.01-.105-.01-.211 0-.395.119-.487.294l-.001.003c-.267.398-.552.771-.821 1.162-.025.041-.039.091-.039.144v.893c0 .003.001.006.001.01s0 .007-.001.01c.002.024.003.052.003.08s-.001.056-.003.084v-.004l-.7-.416c-.008.04-.014.089-.017.138v.004 2.15c-.002.017-.004.037-.004.057 0 .204.14.376.329.424l.003.001c.324.123.603.297.84.514l-.002-.002c.153.114.296.247.438.37.04.023.074.054.1.091l.001.001c-.162.07-.35.11-.547.11s-.386-.041-.556-.114l.009.003c-.352-.159-.646-.392-.872-.68l-.004-.005c-.015.085-.028.134-.033.184-.004.066-.006.144-.006.222 0 .603.129 1.175.36 1.692l-.011-.026c.153.392.282.792.42 1.191.028.079.044.17.044.264 0 .23-.096.438-.25.585-.328.37-.672.725-1.011 1.095l-.046.05c-.179.197-.184.204-.37 0-.359-.387-.711-.777-1.064-1.167-.134-.14-.217-.329-.219-.538 0-.117.026-.229.072-.329l-.002.005c.208-.574.42-1.147.622-1.718.046-.129.076-.279.083-.435v-.003c.013-.32 0-.639 0-.998-.14.107-.25.199-.368.28-.19.134-.381.267-.582.381-.095.05-.208.08-.328.081-.245.013-.493 0-.738 0l-.015-.048.131-.12c.256-.219.501-.438.768-.644.142-.102.306-.189.481-.252l.014-.004h.013c.199-.044.345-.219.345-.428 0-.014-.001-.027-.002-.04v.002-2.108c-.003-.08-.01-.156-.021-.23l.001.011v.011l-.766.401c0-.061-.013-.099-.013-.136 0-.188 0-.377 0-.565 0-.026 0-.057 0-.088-.002-.338-.131-.645-.342-.877l.001.001c-.18-.213-.356-.449-.517-.695l-.017-.028-.018-.028c-.075-.14-.22-.234-.388-.234-.002 0-.003 0-.004 0-.01-.001-.022-.002-.034-.002s-.024.001-.035.002h.001c-.521.057-1.04.096-1.561.144-.13.017-.281.027-.433.027-.606 0-1.176-.152-1.674-.421l.019.009c-.078-.052-.145-.102-.209-.156l.003.003.438-.153 1.554-.499c.414-.131.827-.258 1.241-.392.06-.019.111-.056.146-.104l.001-.001c.008-.019.013-.041.013-.063 0-.001 0-.002 0-.002 0-.031-.008-.059-.022-.084v.001c-.013-.024-.083-.035-.114-.024-.525.144-1.046.296-1.572.438s-1.081.311-1.629.438c-.105.022-.225.035-.349.035-.433 0-.829-.155-1.136-.414l.003.002c-.574-.438-1.167-.854-1.751-1.278-.114-.083-.219-.162-.344-.241-.033-.019-.072-.037-.112-.053l-.006-.002.046-.072c.045-.007.1-.013.156-.015h.004l3.533.085c.222.001.439.015.652.042l-.026-.003h-.024c.242.03.456.131.625.281l-.001-.001c.234.22.55.355.898.355h.002.052c.344-.015.676-.048 1.014-.074.079 0 .144-.033.136-.151h-.169c-.269.026-.582.042-.9.042h-.057c-.406-.049-.764-.221-1.043-.478l.001.001c-.394-.304-.803-.598-1.197-.895-.116-.083-.219-.166-.324-.254-.017-.019-.031-.042-.041-.066l-.001-.002.018-.044 2.498.438.011-.024c-.047-.025-.104-.051-.163-.073l-.01-.003h-.013c-.847-.258-1.701-.506-2.546-.777-1.251-.443-2.335-1.04-3.3-1.785l.027.02c-.711-.514-1.425-1.018-2.137-1.532-.098-.07-.184-.149-.259-.237l-.002-.002c-.096-.1-.156-.235-.158-.385 0-.058.009-.114.025-.166l-.001.004c.048-.164.088-.333.136-.499.018-.044.04-.083.067-.117l-.001.001c.03.024.057.05.08.078l.001.001c.254.425.657.641 1.095.838s.852.387 1.261.602c1.003.523 2.005 1.046 2.995 1.591.753.414 1.491.854 2.233 1.292.761.441 1.41.882 2.026 1.364l-.038-.029-.026-.024c.034.025.075.05.116.073l.007.003.024-.037c-.098-.081-.195-.169-.298-.245-.418-.313-.832-.628-1.261-.93-.782-.568-1.691-1.157-2.631-1.7l-.154-.082-.166-.088c-.624-.35-1.252-.703-1.876-1.06-.53-.304-1.062-.609-1.585-.933-.411-.256-.681-.703-.687-1.214v-.001c0-.046 0-.101 0-.155 0-.002 0-.005 0-.007 0-.665.216-1.28.582-1.779l-.006.008c.037-.048.079-.09.131-.153zm10.99 10.569c-.012-.076-.028-.143-.049-.207l.003.01c-.093-.242-.282-.428-.519-.515l-.006-.002c-.577-.222-1.033-.65-1.286-1.192l-.006-.014v-.015c-.324-.698-.368-1.394.02-2.082.407-.722 1.169-1.202 2.043-1.202.364 0 .709.083 1.016.232l-.014-.006c.401.205.721.52.927.906l.006.012c.216.344.345.763.345 1.212 0 .701-.313 1.329-.808 1.752l-.003.003c-.183.157-.386.302-.602.427l-.02.01h-.022c-.242.128-.427.338-.521.592l-.002.008c-.035.114 0 .149.116.127.142-.021.265-.047.385-.08l-.022.005h-.02c.756-.201 1.378-.676 1.766-1.309l.007-.013c.253-.421.403-.93.403-1.473 0-.281-.04-.552-.115-.809l.005.02v.022c-.201-.866-.785-1.565-1.559-1.919l-.017-.007h-.018c-.352-.16-.763-.254-1.197-.254-.003 0-.005 0-.008 0-.233.001-.46.027-.678.076l.021-.004h.02c-.612.114-1.139.419-1.53.849l-.002.002c-.457.49-.738 1.15-.738 1.876v.005.002c0 .228.028.449.081.66l-.004-.019v-.02c.184 1.029.898 1.856 1.843 2.198l.02.006c.206.086.446.136.697.136h.004.055zm-3.017-13.573c-.182-.138-.333-.293-.525-.267-.296.054-.556.13-.805.229l.028-.01h.028c-.081.026-.077.096 0 .136.084.046.183.09.285.127l.015.005h.015c.057.021.123.033.192.033h.008.018c.041 0 .081-.004.12-.012l-.004.001c.204-.057.392-.151.63-.243zm7.802-.03c-.19-.07-.368-.14-.547-.201-.261-.09-.46.046-.657.184.32.296.946.401 1.202.022z"/><path d="m11.469 21.738c-.219.063-.418.136-.613.169-.82.158-1.537.52-2.12 1.033l.005-.004c-.171.144-.337.296-.508.438-.066.055-.085.103-.024.182.201.256.396.517.591.777.029.042.077.07.131.07.007.001.015.002.023.002s.016-.001.024-.002h-.001c.195-.049.364-.142.502-.268l-.001.001c.151-.09.257-.242.284-.419v-.003c0-.096.142-.188.219-.267h.044.002c.04 0 .076.015.103.04.151.186.289.379.438.574.019.017.031.042.031.07v.001.001c0 .028-.012.053-.031.071h-.015c-.078.094-.195.153-.326.153 0 0 0 0-.001 0h-.077-.001c-.072 0-.138.023-.193.062l.001-.001c-.236.164-.466.344-.698.51-.076.045-.128.126-.131.218v.001c0 .04.009.077.025.11l-.001-.002c.084.194.165.352.253.505l-.013-.024v-.024c.431.696.864 1.295 1.335 1.861l-.021-.026c.028.044.076.072.131.072h.001c.031 0 .059-.009.083-.024h-.001l.024-.011c.081-.061.131-.035.199.028.114.08.188.211.188.36 0 .098-.032.188-.086.261l.001-.001c-.083.171-.244.292-.435.319h-.003c-.3.057-.508 0-.637-.278-.016-.032-.034-.059-.053-.084l.001.001c-.125-.193-.129-.197.039-.344.09-.074.048-.136 0-.199-.175-.245-.357-.486-.532-.731-.327-.459-.673-.862-1.053-1.23l-.002-.002c-.219-.219-.368-.219-.604-.013-.171.147-.366.265-.528.418-.079.095-.152.201-.214.314l-.005.01c-.08.12-.159.224-.243.322l.004-.005c-.015.017-.101 0-.116-.02-.164-.204-.32-.412-.482-.617-.018-.017-.029-.041-.029-.068s.011-.051.029-.068l.024-.017c.095-.1.229-.162.378-.162h.003c.012-.001.026-.002.04-.002s.028.001.042.002h-.002.022.001c.071 0 .136-.024.188-.064l-.001.001c.147-.107.282-.219.423-.344.035-.029.065-.061.091-.097l.001-.002c.038-.037.061-.088.061-.144s0 0 0-.001c0-.053-.021-.102-.055-.137-.184-.219-.344-.458-.51-.679-.042-.049-.095-.088-.155-.113l-.003-.001c-.207-.055-.384-.165-.52-.312l-.001-.001c-.024-.035-.096-.048-.147-.057-.179-.028-.219-.072-.23-.245-.011-.06-.043-.111-.089-.146h-.001c-.254-.175-.291-.285-.16-.567.022-.04.035-.087.035-.137 0 0 0 0 0-.001v-.001c0-.073-.027-.14-.07-.192q-.917-1.217-1.813-2.43c-.554-.755-1.119-1.5-1.664-2.268-.317-.438-.606-.904-.904-1.359-.184-.271-.293-.605-.293-.965 0-.001 0-.002 0-.003-.001-.02-.002-.043-.002-.067s.001-.047.002-.07v.003c0-.14.053-.177.193-.155.442.075.818.314 1.069.652l.003.004q.854 1.068 1.688 2.147c.604.784 1.197 1.572 1.793 2.362.287.379.574.764.852 1.145.026.037.031.09.063.116.041.039.088.073.139.099l.003.002c.094.035.175.078.248.131l-.003-.002c.2.241.478.411.795.471l.009.001c.016.002.034.003.053.003s.037-.001.055-.003h-.002.005c.064 0 .125-.01.183-.03l-.004.001c.526-.19.978-.462 1.366-.807l-.004.004c.097-.085.158-.209.158-.348 0-.083-.022-.161-.06-.228l.001.002c-.042.046-.072.079-.101.114s-.072.162-.186.085c-.033.019-.061.042-.085.07-.107.14-.27.233-.456.245h-.002c.043-.112.068-.242.068-.377 0-.154-.032-.301-.091-.433l.003.007c-.14.213-.378.351-.648.351-.124 0-.242-.029-.346-.082l.004.002.158-.166c.134-.131.216-.314.216-.515 0-.119-.029-.232-.08-.331l.002.004c-.038-.077-.078-.174-.114-.274l-.007-.021v-.022c-.033-.083-.053-.179-.053-.279v-.001-.001c0-.198.077-.379.202-.514.139-.179.31-.326.506-.434l.008-.004c.687-.344 1.375-.707 2.062-1.062l.532-.269c-.171.615.138 1.108.315 1.664l1.375-.795c.008.045.015.099.017.155v.003.727c-.005.129-.078.24-.184.299l-.002.001c-.091.068-.193.133-.301.189l-.012.006h-.013c-.239.125-.271.335-.278.595v.574c.024.164-.101.256-.236.326-.219.116-.438.239-.657.35-.114.059-.149.116-.055.219.072.098.144.21.21.327l.009.017v.02z"/><path d="m16.661 17.911.95.549c.103.059.204.123.311.177.02.015.045.024.072.024h.002c.04-.001.076-.019.101-.048.009-.014.017-.03.022-.047v-.001c.072-.183.147-.418.209-.658l.01-.047.013-.053c.02-.115.033-.251.037-.39v-.004q0-.085 0-.171c0-.053 0-.103 0-.153.096.044.173.07.245.107.528.276 1.057.547 1.581.825.317.171.641.333.944.532.17.123.315.268.434.432l.004.006c.063.089.101.199.101.318 0 .085-.019.166-.054.239l.001-.003c-.077.219-.149.438-.206.657-.019.057-.031.123-.031.192v.003.001c0 .196.093.37.237.48l.001.001c.099.079.092.123-.026.169-.065.025-.14.039-.218.039h-.001c-.007 0-.015 0-.023 0-.136 0-.262-.045-.364-.12l.002.001c-.104-.076-.195-.151-.282-.232l.002.002c-.051.121-.08.261-.08.408 0 .128.022.25.063.363l-.002-.008c-.207-.006-.388-.11-.5-.267l-.001-.002c-.219.219-.195-.136-.328-.129-.037.058-.059.129-.059.205 0 .11.046.21.12.28.051.055.109.103.172.145l.004.002c.344.208.679.416 1.022.615.438.247.81.114 1.147-.173.074-.066.136-.151.219-.219.054-.031.117-.061.183-.086l.01-.003c.065-.024.122-.059.169-.103.484-.637.961-1.281 1.443-1.92.359-.479.722-.957 1.095-1.436.484-.641.948-1.313 1.462-1.922.297-.327.615-.623.955-.892l.017-.013.017-.013c.115-.068.249-.116.393-.137l.006-.001c.09-.026.092.042.101.103.002.033.003.071.003.11 0 .348-.097.672-.266.949l.005-.008c-.406.69-.822 1.284-1.281 1.842l.02-.025q-.941 1.289-1.9 2.574l-1.204 1.62c-.042.048-.068.111-.068.18v.002c0 .045.011.087.031.125l-.001-.001c.136.304.116.381-.149.58-.041.036-.069.085-.079.141v.001c-.017.173-.057.219-.219.263-.09.031-.167.068-.239.112l.005-.003c-.14.074-.282.147-.42.219-.084.051-.157.112-.218.183l-.001.001c-.173.219-.328.46-.495.676-.031.032-.05.075-.05.123.001.044.017.085.044.116.063.081.13.152.202.218l.001.001c.063.057.149.094.219.153.081.102.205.168.345.168.033 0 .065-.004.096-.011l-.003.001h.028.002c.062 0 .12.016.171.045l-.002-.001c.239.101.254.184.096.385-.107.138-.219.278-.313.418-.057.083-.114.109-.199.033-.122-.086-.208-.216-.234-.367v-.003c-.017-.069-.058-.126-.113-.164l-.001-.001c-.243-.186-.493-.368-.742-.547-.037-.031-.085-.05-.138-.05-.053 0-.101.019-.138.051-.338.238-.627.517-.869.833l-.007.009c-.311.42-.602.854-.906 1.276-.079.107-.101.186.028.265.053.018.09.067.09.125.001.007.002.015.002.023s-.001.016-.002.024v-.001c-.009.023-.022.042-.039.057-.105.136-.19.28-.296.412-.039.039-.092.063-.151.063-.069-.013-.155-.024-.242-.03h-.008c-.274.033-.383-.134-.479-.35-.149-.344-.155-.344.074-.628l.07-.085c.164-.219.166-.219.398-.09.083.044.12 0 .16-.055.219-.276.438-.541.639-.825.267-.383.517-.775.766-1.169.056-.097.106-.209.145-.326l.004-.013v-.013c.015-.029.024-.063.024-.098 0-.002 0-.004 0-.006 0-.079-.042-.148-.104-.186l-.001-.001c-.219-.166-.451-.344-.687-.506-.071-.037-.154-.062-.242-.07h-.003c-.079-.002-.154-.011-.227-.026l.008.001c-.239-.072-.269-.186-.116-.377.116-.149.219-.304.344-.458.053-.074.096-.077.169-.031.146.069.245.214.245.383 0 .055.063.116.114.164.177.192.407.331.667.394l.009.002h.026.002c.048 0 .091-.018.123-.048.193-.239.37-.486.563-.727.034-.031.055-.076.055-.125 0-.045-.017-.086-.046-.116-.012-.014-.027-.026-.043-.035h-.001c-.25-.206-.488-.438-.749-.622-.347-.265-.752-.477-1.189-.614l-.028-.008h-.028c-.32-.092-.657-.155-.974-.219-.042-.009-.077-.019-.112-.03l.007.002c-.107-.031-.131-.083-.061-.177s.107-.171.164-.254c.019-.018.031-.044.031-.072s-.012-.054-.031-.072c-.01-.01-.023-.019-.037-.024h-.001c-.219-.123-.416-.25-.626-.368s-.23-.177-.274-.438c-.013-.385.129-.633-.088-.876-.142-.15-.308-.277-.491-.374l-.01-.005c-.163-.056-.278-.209-.278-.388 0-.001 0-.003 0-.004-.001-.01-.002-.022-.002-.034s.001-.024.002-.035v.001c0-.149.017-.322.017-.497q0-.142 0-.282v.013z"/><path d="m14.886 27.495c.127-.637.624-.974.963-1.427l.048.015c0 .081.015.166.028.247.077.468.142.939.23 1.408.088.298.142.641.151.995v.005c-.011.31-.085.601-.209.863l.006-.013v-.013c-.333.687-.674 1.375-1.011 2.053-.048.094-.09.19-.138.285-.023.033-.049.061-.076.087-.035-.025-.066-.054-.091-.087l-.001-.001c-.219-.412-.416-.825-.624-1.239-.16-.317-.328-.633-.486-.954-.151-.323-.239-.701-.239-1.099 0-.004 0-.008 0-.011v.001c0-.155.013-.306.037-.454l-.002.016v.015c.081-.668.195-1.331.296-1.996.014-.044.031-.083.052-.119l-.001.003c.041.023.076.047.108.075l-.001-.001c.177.188.348.388.509.597l.014.018.013.017c.111.163.223.354.323.552l.014.031.013.033.066.109z"/><path d="m4.884 3.181.28.398c.374.486.788.91 1.247 1.283l.014.011c.124.094.234.188.338.29l-.001-.001c.261.3.62.39.981.473.474.124.871.401 1.143.776l.004.006c.394.51.764 1.04 1.145 1.563.033.049.068.107.1.167l.005.01c-.109 0-.184 0-.254-.02-.523-.092-1.046-.182-1.567-.28-.466-.085-.935-.166-1.394-.282-.208-.064-.389-.165-.543-.295l.002.002c-.381-.306-.753-.628-1.112-.959-.449-.41-.73-.999-.73-1.653 0-.096.006-.19.018-.283l-.001.011c.048-.436.152-.834.304-1.208l-.011.03-.011.031c.011-.03.024-.055.038-.079l-.001.002z"/><path d="m24.724 3.26c.072.158.146.356.209.559l.01.039v.042c.063.201.099.432.099.671 0 .432-.118.837-.324 1.183l.006-.011c-.187.281-.396.524-.632.739l-.003.003c-.291.276-.619.512-.926.775-.234.177-.516.305-.822.362l-.012.002c-.407.101-.823.169-1.237.245-.486.092-.972.179-1.458.267l-.219.033c.015-.054.034-.1.057-.144l-.002.004c.394-.545.784-1.095 1.189-1.629.276-.38.685-.649 1.157-.738l.012-.002h.013c.475-.084.886-.313 1.197-.638l.001-.001c.396-.394.803-.779 1.191-1.178.153-.155.28-.337.42-.506l.088-.079z"/><path d="m29.137 10.985c-.099.129-.166.219-.245.32-.506.569-1.141 1.012-1.859 1.285l-.033.011h-.033c-.635.227-1.368.365-2.132.381h-.007c-1.024.053-2.049.114-3.065.173l-.269.013c.015-.046.017-.074.031-.083.424-.348.897-.684 1.392-.986l.055-.031c.385-.197.831-.344 1.302-.415l.024-.003h.024c.63-.103 1.261-.195 1.9-.282.567-.079 1.136-.14 1.701-.219.304-.042.604-.105.906-.151.033-.002.071-.003.109-.003s.077.001.115.003h-.005.085z"/><path d="m8.023 13.17-.438-.026c-.409-.022-.821-.039-1.232-.066-.7-.046-1.399-.081-2.095-.151-.534-.05-1.019-.136-1.49-.257l.065.014.061.013c-.765-.203-1.425-.584-1.956-1.096l.001.001c-.151-.144-.293-.3-.438-.458-.034-.045-.067-.096-.094-.15l-.003-.006c.125 0 .219 0 .302.02l3.87.543c.63.085 1.27.129 1.848.425.338.183.624.366.897.567l-.043-.03c.219.151.438.326.639.495.046.037.088.079.129.114z"/><path d="m5.186 11.193-.51-.055c-.219-.022-.42-.037-.628-.066-.398-.055-.797-.116-1.193-.177l-1.48-.234c-.344-.05-.679-.096-1.018-.149-.204-.028-.28-.118-.315-.32-.026-.162-.042-.348-.042-.538 0-.552.128-1.074.355-1.538l-.009.021-.011.022c.05-.116.101-.23.158-.337.026-.044.055-.082.088-.116.063.164.116.309.171.451.108.219.277.395.484.509l.006.003c.425.267.863.497 1.285.762.854.536 1.701 1.075 2.55 1.616.045.033.085.067.122.105z"/><path d="m24.257 11.175c.201-.138.401-.285.606-.418.619-.398 1.237-.801 1.863-1.186.506-.313 1.02-.611 1.532-.917.09-.053.177-.114.267-.166.208-.135.354-.35.393-.601l.001-.005c0-.061.033-.114.055-.195.026.024.044.033.048.046.147.427.309.852.438 1.285.045.173.07.373.07.578 0 .246-.037.483-.105.707l.005-.017v-.018c-.037.151-.166.188-.293.219-.458.077-.917.147-1.368.219l-2.034.322-1.355.219h-.114z"/><path d="m13.207 28.642c-.039-.013-.073-.031-.104-.053l.001.001c-.368-.401-.757-.788-.983-1.294-.109-.223-.173-.486-.173-.763 0-.003 0-.005 0-.008 0-.376.115-.726.311-1.016l-.004.006c.219-.381.504-.742.764-1.095.219-.309.468-.609.7-.915.024-.036.046-.077.064-.12l.002-.005.068.053c-.031.085-.057.173-.09.258-.164.412-.331.821-.497 1.232-.026.057-.042.123-.042.193v.001c0 .08.02.155.054.222l-.001-.003c.065.127.133.235.21.336l-.004-.006c.136.164.219.377.219.61v.008.002c0 .077-.01.152-.028.224l.001-.006c-.16.676-.293 1.359-.438 2.04 0 .033-.02.066-.033.116z"/><path d="m16.543 28.653c-.035-.162-.074-.324-.114-.486l-.368-1.729c-.022-.099-.05-.195-.063-.293-.001-.011-.002-.023-.002-.036s.001-.025.002-.038v.002c0-.001 0-.002 0-.002 0-.143.066-.271.17-.354l.001-.001c.179-.139.293-.354.293-.596v-.001c0-.113-.024-.219-.068-.316l.002.005c-.129-.344-.25-.698-.37-1.049-.015-.054-.026-.118-.03-.183v-.003l.039-.017c.037.029.07.059.1.091v.001c.274.37.574.731.817 1.119.224.326.436.698.616 1.089l.019.047.02.048c.075.187.119.404.119.631 0 .304-.078.59-.215.838l.005-.009c-.219.477-.615.834-.917 1.252z"/><path d="m18.673 8.656c-.011-.04-.018-.087-.02-.135v-.001c.028-.549.039-1.095.099-1.644.071-.385.232-.723.461-1.005l-.003.004 1.057-1.497c.027-.042.065-.074.11-.093l.002-.001c.013.16.037.32.042.482 0 .129.013.28.013.438s0 .302-.015.453v-.022c-.023.474-.179.907-.43 1.269l.005-.008c-.409.552-.801 1.114-1.2 1.672-.02.034-.041.076-.06.12l-.004.009z"/><path d="m9.168 4.267.53.733c.201.278.398.56.602.836.344.426.552.975.552 1.571 0 .039-.001.079-.003.117v-.006c-.02.326 0 .657 0 .976-.007.052-.02.099-.039.144l.001-.004c-.044-.023-.081-.05-.114-.083-.368-.508-.731-1.02-1.095-1.532-.297-.42-.48-.939-.492-1.501v-.003c-.02-.396.02-.795.035-1.195.009-.022.018-.041.029-.058l-.001.001z"/><path d="m15.912 18.631c.177.103.324.184.466.271.254.153.503.309.755.471.162.088.269.257.269.451v.037c-.02.35-.026.703-.042 1.055 0 .164-.026.173-.164.096-.352-.195-.703-.39-1.049-.593-.132-.081-.219-.224-.219-.388 0-.002 0-.004 0-.006 0-.004-.001-.009-.001-.014s0-.01.001-.015v.001-1.206c-.002-.018-.003-.04-.003-.061s.001-.043.003-.064v.003-.039z"/><path d="m13.791 18.684v.86.328c.001.009.001.021.001.032s0 .022-.001.033v-.002c-.001.196-.106.367-.262.461l-.002.001c-.344.219-.705.42-1.06.63-.032.014-.07.025-.109.032h-.003c0-.162-.02-.311-.028-.46 0-.206 0-.412-.026-.617-.001-.014-.002-.031-.002-.048s.001-.034.002-.05v.002-.001c0-.274.16-.51.392-.621l.004-.002c.333-.171.657-.359.983-.538.027-.013.059-.026.091-.036l.005-.001z"/><path d="m16.705 22.427c.335.017.672.02 1.005.053.123.024.231.078.318.154l-.001-.001c.315.243.619.497.928.749.02.02.038.041.054.064l.001.001c0 .015 0 .028-.015.028-.145.014-.314.022-.485.022s-.34-.008-.506-.024l.021.002c-.241-.074-.45-.192-.626-.345l.002.002c-.236-.177-.438-.39-.67-.587-.013-.015-.025-.031-.036-.049l-.001-.002z"/><path d="m17.648 24.498c-.114-.09-.23-.175-.335-.267s-.25-.219-.385-.331c-.335-.246-.551-.638-.554-1.081 0-.14-.013-.28-.022-.438.059.029.109.059.156.094l-.003-.002c.291.258.593.506.86.786.114.134.198.298.237.479l.001.007c.042.201.074.441.089.686l.001.014v.015z"/><path d="m12.951 22.513-.876.679c-.085.068-.171.138-.261.199-.053.045-.118.078-.19.094l-.003.001c-.344.028-.679.044-1.016.066l-.018-.055c.031-.043.063-.081.098-.116.276-.219.558-.438.83-.674.19-.149.43-.243.692-.252h.002c.239-.022.479 0 .72 0z"/><path d="m13.34 22.432c-.092.42-.066.876-.438 1.208-.219.197-.438.405-.657.606-.083.081-.171.155-.256.219l-.048-.022c.026-.19.053-.381.074-.574.059-.547.414-.876.832-1.182.085-.061.162-.131.25-.19.054-.035.117-.071.183-.104l.012-.005h.013z"/><path d="m10.643 1.567c.219.127.337 0 .549-.085-.247-.169-.381.05-.549.085z"/><path d="m18.461 1.482c.219.042.339.171.549.042-.169 0-.296-.254-.549-.042z"/></svg>