<svg height="32" viewBox="0 0 72 32" width="72" xmlns="http://www.w3.org/2000/svg"><path d="m66.944 3.936h.608v5.792l-.448.448v2.4h-.768l-.576.608h-13.568l-.576-.64h-1.184l-9.76 7.328v8.864l-.48.512h-8.128l-.416-.448v-3.36l-13.504-3.904-.512-.32-.224-.32v-.48l.64-.192.448-.256.192-1.312.416-1.408.832-1.792 1.024-1.632.992-1.344.256-.32.032-.192-.16-.224h-12.672l-2.144 2.272-.128.288v2.368l-.448.992-2.144.768-.256-.16-.16-.736v-.512l.16-2.688.096-2.88-.096-2.88-.16-1.984.096-.672.256-.192.416-.096h.576l.416.384h.704l.352-.352h20.704l1.952-.48.928-.704.512-.768.256-.48h1.856v-.416h1.312l.448-.736 3.232-.16.48-.544.224-1.152h1.088l.16 1.12.672.832v.448h3.68v.48h21.088zm-35.296 18.432v-9.696h-3.712l-.128.32-.032.576.128.704.288.64-.288.288-.192-.192-.224-.288-.32-.672-.128-.64-.032-.736h-.576l-.224.288-.16.576.064.736.288.448.608.384v.288l-.384.416-.352-.032-.512.064-.352.224-.288.448-.224.8v.864l-.384.192-.512.544-.416.736-.256.96 8.064 2.336v-.288zm2.016-12.736v-3.424h-.64v3.424z"/></svg>