<svg height="32" viewBox="0 0 32 32" width="32" xmlns="http://www.w3.org/2000/svg"><path d="m26.279 11.335c.415.41.66.896.567 1.525-.04.272-.081.538-.201.788-.169.369-.463.657-.825.815l-.01.004c-.28.122-.557.222-.87.214-.205-.001-.388-.09-.516-.231l-.001-.001c-.375-.397-.746-.797-1.124-1.191-.108-.102-.176-.247-.176-.408 0-.004 0-.007 0-.011v.001c.006-.287.096-.399.379-.465l1.051-.247c.502-.117.961-.314 1.335-.684.092-.091.19-.181.392-.111z"/><path d="m5.741 20.655c-.354-.309-.581-.702-.609-1.176-.004-.05-.006-.109-.006-.168 0-.393.097-.763.269-1.087l-.006.013c.282-.534.767-.776 1.326-.908.059-.013.117-.012.176-.023.274-.059.5.032.686.229.387.41.769.825 1.156 1.236.153.162.161.351.106.544-.047.165-.171.247-.338.284-.416.094-.835.181-1.245.298-.422.12-.829.281-1.131.626-.09.1-.203.152-.383.132z"/><path d="m10.123 21.767c-.091.036-.208.075-.328.106l-.023.005c-.411.083-.776.221-1.11.408l.019-.01c-.237.141-.44.283-.631.439l.01-.008c-.059.043-.087.126-.128.19l-.14.216c-.265-.095-.493-.203-.683-.372-.304-.273-.596-.56-.895-.839-.17-.158-.2-.351-.142-.561.102-.359.329-.654.63-.842l.006-.004c.58-.375 1.239-.482 1.863-.546.156.078.161.176.164.276.012.266.121.505.293.683.243.272.516.501.859.64.096.046.177.092.254.143l-.008-.005z"/><path d="m23.318 11.98c-.026-.076-.047-.166-.058-.259l-.001-.007c-.006-.215-.089-.41-.223-.559l.001.001c-.246-.293-.527-.542-.889-.694-.113-.057-.209-.116-.3-.18l.007.005c.069-.132.176-.147.282-.167.407-.089.766-.215 1.102-.379l-.029.013c.269-.126.501-.28.705-.465l-.002.002c.052-.054.096-.116.132-.183l.002-.005c.041-.064.076-.131.111-.193.219-.013.376.095.527.196.423.284.783.641 1.135 1.007.136.141.149.313.102.491-.052.22-.154.411-.294.568l.001-.001c-.276.297-.596.527-1.001.621-.246.059-.491.125-.736.186-.089.025-.19.039-.296.039-.099 0-.196-.013-.288-.037l.008.002z"/><path d="m9.698 26.937c.139.125.282.256.427.385.126.1.205.253.205.424 0 .066-.012.129-.033.187l.001-.004c-.023.066-.036.142-.036.221 0 .084.015.164.042.239l-.002-.005c.064.195.03.239-.196.36-.124-.064-.271-.102-.427-.102-.054 0-.108.005-.159.013l.006-.001c-.015.001-.033.002-.051.002-.124 0-.242-.031-.344-.087l.004.002c-.424-.218-.841-.449-1.254-.685-.19-.106-.341-.261-.441-.447l-.003-.006c-.206-.395-.602-.481-1.003-.324-.153.055-.284.117-.408.189l.011-.006c-.133.095-.249.189-.359.29l.003-.002c-.524-.314-.728-.911-1.15-1.308.077-.34.246-.548.581-.6.105-.016.208-.047.313-.07.39-.083.702.071.986.318.021.02.037.044.047.071v.001c.008.031.013.066.016.103v.002h-.533c-.204.206-.218.473-.046.852.037-.117.067-.2.091-.287.059-.212.101-.263.321-.258.252.005.503.036.755.067.26.032.523.061.779.117.241.049.454.118.656.21l-.019-.008c.365.17.728.273 1.126.14.008-.001.018-.001.027-.001.024 0 .047.003.07.008h-.002zm-1.814.179c.029.142.066.275.234.354.025-.208-.082-.297-.235-.354zm-2.726-1.058c.217.205.217.205.397.109-.101-.113-.222-.137-.397-.109z"/><path d="m21.83 3.27c.258.023.447.05.637.053h.018c.187 0 .363.05.514.138l-.005-.003c.319.187.644.365.968.54.246.133.473.296.588.55.183.404.625.45.977.335.371-.121.48-.197.773-.488.092.058.172.119.247.187l-.001-.001c.135.143.265.295.387.454l.01.014c.174.221.335.451.507.685-.086.342-.27.572-.656.585-.097.011-.185.028-.269.052l.012-.003c-.356.077-.649-.059-.918-.275-.064-.051-.114-.108-.061-.21.184-.059.404.092.579-.072.098-.216.089-.499-.038-.767-.067.176-.128.33-.194.503-.09.012-.194.019-.3.019-.03 0-.059-.001-.089-.002h.004c-.464-.053-.928-.109-1.389-.186-.208-.042-.392-.106-.565-.19l.014.006c-.363-.161-.726-.275-1.13-.169-.015.003-.033.004-.051.004-.071 0-.137-.024-.191-.063l.001.001c-.156-.126-.296-.255-.427-.393l-.002-.002c-.078-.082-.126-.193-.126-.315 0-.054.009-.106.027-.154l-.001.003c.028-.081.044-.174.044-.271s-.016-.19-.046-.277l.002.006c-.06-.179-.011-.232.15-.298zm2.317 1.588c-.059-.103-.114-.208-.18-.306-.013-.021-.07-.011-.117-.016.026.18.111.286.297.323zm2.294.904c.167.176.17.179.376.108-.106-.112-.217-.172-.376-.107z"/><path d="m13.411 14.994c.081.089.159.176.239.261.193.205.384.413.585.612.1.1.15.211.108.342-.102.318-.05.635-.016.955.016.148.026.321.026.495-.006.077-.019.148-.039.216l.002-.007c-.149.07-.251.008-.351-.054-.143-.086-.315-.138-.499-.14h-.001c-.293-.015-.581-.053-.871-.056-.206.004-.404.03-.595.075l.019-.004c-.275.059-.331.035-.433-.238-.037-.1-.065-.205-.109-.301-.199-.43-.13-.845.102-1.229.359-.594.92-.874 1.596-.947h.015c.078 0 .155.007.229.021l-.008-.001z"/><path d="m17.653 14.099c.176-.052.285.009.389.083.109.076.244.121.389.121h.021-.001.007c.161 0 .318.017.47.049l-.015-.003c.303.064.599.03.898-.025.15-.027.305-.034.464-.05.031.053.064.118.094.185l.005.014c.045.117.079.241.125.358.066.157.105.339.105.53 0 .402-.17.764-.442 1.019l-.001.001c-.356.34-.787.532-1.265.626-.191.038-.341-.032-.468-.172-.208-.231-.414-.464-.633-.687-.136-.139-.163-.273-.131-.471.016-.117.025-.253.025-.391s-.009-.274-.027-.407l.002.016c-.016-.135-.026-.291-.026-.45 0-.122.006-.242.016-.361z"/><path d="m16.761 22.924c-.17.31-.363.544-.725.631-.468.112-.867.385-1.244.68-.117.09-.224.189-.342.272-.08.064-.173.115-.274.149l-.006.002c-.305.074-.592-.065-.882-.12-.207-.04-.343-.248-.448-.437-.048-.082-.076-.181-.076-.286 0-.111.031-.214.085-.302l-.001.003c.216-.381.501-.697.841-.942l.009-.006c.028-.023.061-.044.095-.061l.003-.002c.468-.205.951-.331 1.466-.308.051 0 .1.01.145.027l-.003-.001c.53.226.976.46 1.4.725l-.042-.025z"/><path d="m15.236 9.086c.131-.311.325-.504.615-.585.604-.169 1.112-.506 1.585-.901.221-.185.448-.255.726-.193.099.017.218.03.339.036h.008c.385.03.686.349.686.739 0 .162-.052.312-.14.434l.002-.002c-.251.365-.527.702-.942.892-.363.172-.789.273-1.239.273-.073 0-.145-.003-.217-.008l.01.001c-.041-.002-.08-.01-.116-.024l.003.001c-.522-.221-.955-.443-1.372-.69l.052.029z"/><path d="m15.167 13.331c.063-.099.129-.185.201-.265l-.001.001c.438-.397.527-.908.487-1.463-.006-.087-.02-.176-.03-.255.044-.04.102-.065.167-.065.031 0 .061.006.089.017l-.002-.001q.961.293 1.921.592c.025.013.046.028.066.046.08.252.145.527.123.809-.052.661-.43 1.07-1.038 1.27-.172.059-.37.093-.576.093-.327 0-.634-.086-.899-.237l.009.005c-.229-.121-.408-.31-.514-.54z"/><path d="m18.85 21.657c-.071-.014-.129-.03-.187-.049l.011.003c-.535-.205-1.068-.416-1.604-.618-.165-.066-.298-.18-.385-.326l-.002-.004c-.245-.369-.189-.761-.139-1.157.022-.169.125-.305.252-.417.254-.238.597-.385.974-.385.115 0 .227.014.335.04l-.01-.002c.091.018.173.052.244.099l-.003-.002c.32.22.634.448.916.649.103.17.094.3.034.431-.04.088-.077.179-.125.263-.127.215-.202.474-.202.75 0 .124.015.244.043.359l-.002-.01c.036.148-.002.268-.152.375z"/><path d="m13.015 10.398c.187-.078.3-.026.42.022.468.184.942.366 1.416.54.377.138.678.599.641 1.006-.014.092-.024.202-.028.314v.006c.004.277-.121.483-.336.644-.365.276-.757.441-1.223.301-.091-.023-.172-.057-.245-.101l.004.002c-.29-.197-.578-.396-.859-.605-.16-.117-.183-.228-.117-.41.037-.104.076-.192.122-.275l-.005.01c.205-.363.252-.749.193-1.157-.001-.017-.001-.038-.001-.058 0-.083.007-.165.02-.245l-.001.009z"/><path d="m11.347 14.649c-.063.026-.135.041-.212.041s-.149-.015-.215-.042l.004.001c-.293-.112-.595-.083-.894-.073-.122.016-.233.054-.332.109l.005-.002c-.176.078-.347.168-.541.263-.076-.088-.163-.149-.191-.229-.056-.166-.111-.374-.152-.586l-.005-.032c-.021-.104-.005-.214-.015-.32-.05-.582.238-1.003.654-1.36.059-.05.131-.086.188-.138.249-.229.536-.246.845-.16.425.117.745.314 1.045.863-.074.268-.184.534-.215.808s.017.557.031.855z"/><path d="m16.809 18.721c-.071.097-.139.181-.211.262l.003-.003c-.399.404-.523.894-.464 1.444.008.077.018.155.022.234-.006.036-.015.069-.029.1l.001-.002c-.028.008-.061.012-.094.012-.014 0-.028-.001-.041-.002h.002q-.962-.29-1.92-.585c-.05-.019-.091-.039-.131-.061l.005.003c-.33-.781-.117-1.569.557-1.967.029-.021.062-.041.097-.057l.004-.002c.594-.201 1.184-.224 1.747.087.206.11.378.269.452.539z"/><path d="m22.942 17.066c.07.18.133.311.171.449.055.194.086.416.086.646 0 .13-.01.257-.029.381l.002-.014c-.059.405-.287.739-.599 1.006-.095.081-.211.14-.308.22-.199.162-.432.187-.664.137-.508-.106-.924-.433-1.148-.873l-.004-.009c.08-.288.188-.554.22-.829.03-.265-.02-.537-.035-.817.063-.047.143-.075.229-.075.045 0 .088.008.128.022l-.003-.001c.169.042.34.081.512.107.264.04.523.026.766-.106.101-.058.222-.117.348-.168l.021-.008c.085-.026.189-.05.296-.066l.012-.002z"/><path d="m17.338 10.101c.083-.185.227-.218.365-.264.277-.083.502-.167.722-.263l-.041.016c.286-.135.514-.356.707-.599.208-.263.451-.311.749-.213.138.046.28.082.415.136.722.288 1.048 1.076.714 1.746-.086.158-.191.293-.314.409l-.001.001c-.238.234-.519.288-.831.148-.53-.239-1.062-.475-1.593-.714-.291-.129-.582-.26-.893-.403z"/><path d="m14.684 21.903c-.113.083-.184.144-.265.191-.048.026-.104.044-.164.051h-.002c-.565.081-.974.416-1.346.819-.091.099-.194.187-.284.275-.513.017-.973-.127-1.321-.442-.585-.532-.523-1.329-.067-1.805.306-.32.607-.38 1.034-.199.761.323 1.51.677 2.264 1.02.04.014.067.037.152.089z"/><path d="m11.015 17.221c-.592-.011-1.136.005-1.659.242-.059-.064-.114-.133-.164-.207l-.004-.006c-.135-.234-.269-.474-.392-.716-.163-.317-.135-.625.087-.905.372-.468.855-.731 1.457-.741.017 0 .038-.001.058-.001.225 0 .444.021.657.063l-.022-.003c.247.044.45.202.556.416l.002.005c-.059.089-.117.186-.187.277-.282.38-.451.793-.391 1.278.003.049.005.107.005.165 0 .047-.001.094-.004.14v-.006z"/><path d="m22.698 14.525c.185.351.373.678.536 1.018.142.293.071.575-.138.813-.41.468-.906.752-1.552.735-.306-.008-.605-.013-.869-.19-.111-.074-.239-.142-.239-.301.158-.283.328-.555.465-.842.143-.301.067-.633.077-.976.066-.022.142-.036.221-.04h.002c.083.008.179.013.277.013.385 0 .752-.073 1.09-.205l-.02.007c.041-.012.092-.023.145-.031l.007-.001z"/><path d="m23.874 8.619c.059.283-.083.421-.234.546-.235.201-.517.355-.827.443l-.016.004c-.272.072-.544.146-.819.205-.259.055-.387.009-.49-.202-.28-.574-.773-.878-1.335-1.108-.079-.032-.159-.062-.224-.087-.048-.15.044-.176.129-.198.198-.049.397-.098.598-.132.283-.049.539-.14.756-.344.187-.176.413-.194.65-.078.462.225.931.439 1.391.67.161.094.299.187.429.288l-.009-.006z"/><path d="m12.087 23.681c-.055.032-.12.062-.187.085l-.008.003c-.245.059-.491.12-.738.167-.202.032-.379.119-.52.246l.001-.001c-.123.114-.28.191-.455.214h-.004c-.065-.026-.146-.055-.225-.092-.423-.197-.847-.39-1.264-.598-.198-.099-.382-.225-.531-.315-.097-.18-.054-.293.027-.4.149-.191.339-.343.558-.443l.009-.004c.405-.198.842-.293 1.284-.365.05-.004.108-.007.167-.007s.117.002.174.007h-.008c.163.234.285.459.458.637.177.169.375.317.59.441l.015.008c.211.128.442.222.664.331z"/><path d="m6.99 16.882c-.169.049-.278.09-.391.111-.52.094-.878.426-1.216.799-.075.083-.157.161-.217.222-.252 0-.473-.13-.602-.326l-.002-.003c-.381-.557-.472-1.141-.124-1.751.072-.126.152-.249.234-.368.271-.391.788-.464 1.129-.133.25.256.489.526.713.809l.016.021c.156.184.29.387.459.619z"/><path d="m25.028 15.105c.332-.147.709-.138.982-.376.262-.229.52-.463.828-.737.198-.059.398.059.545.255.374.499.522 1.045.234 1.639-.109.226-.232.421-.373.6l.005-.007c-.135.164-.337.267-.564.267-.162 0-.312-.053-.433-.143l.002.001c-.129-.094-.242-.197-.341-.312l-.002-.003c-.26-.315-.509-.64-.761-.963-.041-.062-.081-.135-.117-.211l-.005-.011z"/><path d="m13.821 18.379c-.241.481-.38.998-.229 1.58-.044.004-.095.007-.146.007s-.102-.002-.153-.007h.006c-.861-.184-1.603-.411-2.317-.693l.099.034c-.014-.399.076-.743.422-.99.26-.199.588-.322.944-.331h.002c.348-.003.702-.046 1.033.109.126.055.255.097.339.289z"/><path d="m18.201 13.733c.019-.112.012-.225.059-.312.214-.418.234-.856.164-1.308-.001-.012-.002-.026-.002-.04s.001-.028.002-.042v.002c.333-.059 1.764.322 2.482.659.013.316-.027.618-.293.855-.332.293-.702.483-1.16.457-.053-.004-.114-.006-.176-.006s-.123.002-.184.007h.008c-.319.028-.587-.102-.901-.271z"/><path d="m11.171 9.122c.422.301.866.57 1.251.908.303.266.475.636.371 1.072-.032.132-.052.268-.088.398-.065.234-.155.351-.378.496-.118-.052-.218-.109-.313-.173l.007.004c-.421-.334-.764-.746-1.103-1.16-.027-.027-.047-.06-.058-.097v-.002c-.07-.486-.122-.969.228-1.386.025-.021.053-.041.082-.059l.003-.002z"/><path d="m21.145 21.415c.056.521.099 1.013-.3 1.436-.144-.09-.278-.165-.402-.254-.276-.199-.56-.39-.819-.611-.363-.311-.536-.702-.41-1.191.037-.14.07-.283.117-.421.043-.128.098-.254.203-.325.198-.076.334.003.468.117.334.298.634.617.906.959l.012.016c.074.09.149.18.225.274z"/><path d="m6.535 27.727c.19.297.444.326.736.355.064-.003.124-.011.182-.023l-.007.001c.024-.003.053-.005.081-.005.135 0 .261.04.366.108l-.003-.002c.218.145.439.287.663.422s.454.26.69.396c.008.077.015.152.021.225-.207.243-.497.41-.827.455l-.007.001c-.032.004-.07.007-.108.007-.114 0-.224-.022-.324-.061l.006.002c-.294-.116-.537-.231-.771-.361l.033.017c-.167-.095-.36-.18-.563-.245l-.022-.006c-.727-.215-.975-.937-.675-1.546l.262-.013c.102.079.189.169.263.271l.003.004zm1.189 1.149c-.253-.18-.494-.193-.707-.276s-.4-.207-.604-.315c-.043.121.033.176.096.234.184.175.408.311.655.393l.012.004c.101.031.217.052.337.058h.003c.053.003.107-.049.207-.098z"/><path d="m25.453 4.25c-.145-.221-.342-.265-.556-.327-.021-.006-.046-.01-.072-.01-.016 0-.032.001-.047.004h.002c-.363.065-.659-.083-.952-.275s-.602-.358-.905-.534c-.257-.148-.275-.307-.039-.493.351-.279.749-.377 1.177-.214.244.092.473.225.711.336.149.07.3.135.452.198.063.026.131.039.194.063.501.198.878.761.582 1.496h-.321c-.085-.072-.159-.152-.223-.241l-.003-.004zm.138-.544c.006-.195-.133-.28-.252-.367-.286-.207-.591-.366-.961-.345-.024.054-.039.088-.059.128.19.171.445.149.65.25s.403.216.621.334z"/><path d="m5.72 11.572c-.176-.071-.2-.21-.207-.362-.014-.342-.071-.665-.166-.972l.007.027c-.047-.188-.134-.352-.252-.488l.001.002c-.077-.072-.125-.175-.125-.288 0-.072.019-.139.052-.197l-.001.002c.117-.234.239-.468.362-.697.085-.154.238-.261.417-.281h.002c.32-.053.617.033.9.173.055.027.091.093.137.143-.418.845-.644 1.741-.92 2.621-.04.119-.059.249-.209.319z"/><path d="m26.177 20.419c.254.054.271.081.297.296.03.26.064.52.109.778.039.284.155.536.326.74l-.002-.002c.124.142.135.293.046.456-.109.205-.198.423-.317.622-.197.331-.435.426-.812.343-.215-.047-.444-.063-.644-.242.015-.098.037-.186.066-.27l-.003.01c.321-.721.532-1.479.768-2.228.05-.164.107-.326.166-.503z"/><path d="m26.213 16.939c.195-.049.293.063.362.196.18.334.345.674.527 1.006.074.12.157.224.251.317.064.062.133.121.205.175l.005.004c.012.045.031.076.025.101-.129.54-.356 1.009-.915 1.229-.058.022-.125.035-.194.035-.011 0-.022 0-.033-.001h.002c-.001 0-.003 0-.005 0-.122 0-.225-.084-.255-.197v-.002c-.035-.111-.056-.238-.058-.37v-.001c.015-.508 0-1.008-.12-1.507-.088-.368-.017-.602.205-.983z"/><path d="m5.803 15.025c-.207.063-.303-.034-.37-.159-.181-.332-.348-.672-.533-1.002-.08-.129-.168-.24-.267-.342-.071-.072-.145-.14-.223-.203l-.005-.004c-.006-.027-.01-.058-.01-.089 0-.015.001-.03.003-.045v.002c.153-.434.327-.856.752-1.105.22-.129.441-.111.671.078.021.162.033.352.035.544v.003c-.017.44-.018.878.122 1.298.128.382-.023.698-.176 1.023z"/><path d="m24.986 23.667c.285.175.631.279 1 .279.077 0 .152-.004.226-.013l-.009.001c-.204.275-.351.5-.527.702-.276.327-.561.65-.862.95-.198.185-.412.358-.639.515l-.019.012c-.08.059-.191.074-.264.1-.05-.03-.076-.036-.083-.05-.128-.293-.111-.605-.108-.911 0-.09.085-.196.158-.265.303-.28.57-.592.797-.934l.012-.019c.08-.128.197-.233.316-.368z"/><path d="m8.207 5.821c.087.277.088.561.097.841.005.13-.07.239-.166.33-.328.299-.616.633-.86.998l-.012.02c-.068.111-.186.194-.244.259-.224-.076-.401-.153-.585-.196-.159-.03-.353-.054-.549-.067l-.015-.001c.073-.234.21-.407.354-.572.303-.344.604-.69.925-1.015.197-.2.429-.365.647-.543.109-.092.237-.121.409-.055z"/><path d="m27.012 17.384c.002-.031.008-.061.018-.088l-.001.002c.186-.32.376-.644.68-.862.217-.156.482-.107.727-.078.176.437.146 2.005-.087 2.347-.188.059-.351-.032-.508-.128-.327-.199-.577-.495-.713-.848l-.004-.012c-.042-.107-.076-.22-.113-.333z"/><path d="m3.555 15.628c-.169-.479-.123-1.851.071-2.334.045-.012.097-.019.151-.019.138 0 .265.045.369.12l-.002-.001c.438.277.745.727.827 1.251l.001.01c-.176.337-.393.675-.748.901-.081.041-.176.066-.277.067-.125.011-.251.004-.392.004z"/><path d="m9.368 19.202c.095.04.176.084.252.134l-.006-.003c.473.364 1.007.701 1.571.988l.058.027c.05.03.092.06.132.092l-.003-.002c-.036.039-.074.074-.115.105l-.002.002c-.241.153-.443.345-.601.57l-.004.007c-.104.156-.248.193-.433.146-.353-.09-.655-.272-.89-.519l-.001-.001c-.289-.293-.327-1.117-.063-1.452.032-.033.066-.064.102-.092l.002-.002z"/><path d="m22.653 12.772c-.068-.024-.161-.033-.22-.082-.536-.447-1.137-.784-1.756-1.096-.013-.009-.024-.021-.033-.034l.84-.836c.419-.066 1.021.212 1.254.595.113.19.179.418.179.663 0 .298-.099.573-.267.793l.002-.003z"/><path d="m15.73 8.19c-.036-.088-.077-.148-.081-.21-.025-.296-.19-.502-.41-.678-.135-.108-.273-.213-.359-.341.011-.089.087-.157.178-.157h.005c.491-.059.979-.153 1.478-.133.301.012.603-.006.904-.008.094 0 .189.009.31.016-.022.08-.023.14-.053.18-.423.577-.947 1.028-1.631 1.269-.097.027-.213.049-.332.062l-.009.001z"/><path d="m14.221 25.259c.078-.108.15-.221.234-.323.322-.386.714-.701 1.157-.931l.021-.01c.211-.108.43-.176.68-.082.011.037.021.085.029.134l.001.008c.027.243.148.454.325.598l.002.001c.153.133.3.273.431.393 0 .138-.069.163-.153.176-.458.088-.984.138-1.523.138-.025 0-.051 0-.076 0h.004c-.273-.006-.546 0-.819 0-.094 0-.188-.016-.282-.025z"/><path d="m3.655 13.021c.248-1.116.531-2.166 1.042-3.146.162.063.22.179.263.293.144.382.266.771.301 1.182.017.197-.024.38-.186.495-.32.228-.511.554-.719.871-.078.117-.176.227-.265.342z"/><path d="m19.086 24.436c.044-.003.095-.005.146-.005s.103.002.153.005h-.007c.481.074.931.029 1.321-.296.03-.02.064-.037.1-.05l.003-.001c.423.299.626 1.293.371 1.815-.205.067-.404-.009-.601-.047-.226-.051-.421-.115-.608-.195l.023.009c-.186-.075-.335-.207-.43-.374l-.002-.004c-.151-.266-.296-.539-.47-.855z"/><path d="m28.323 19.016c-.242 1.176-.599 2.216-1.068 3.191l.035-.081c-.117-.06-.206-.161-.249-.283l-.001-.004c-.144-.358-.254-.775-.31-1.209l-.003-.026c-.019-.164.019-.321.15-.421.367-.279.582-.671.828-1.044.169-.26.284-.28.618-.122z"/><path d="m10.826 6.043c.484.011.937.14 1.332.359l-.015-.008c.112.064.203.151.268.257l.002.003c.169.28.316.572.483.882-.137 0-.254.017-.365 0-.444-.078-.849-.005-1.208.278-.041.029-.089.057-.138.083l-.007.003c-.407-.316-.611-1.35-.352-1.857z"/><path d="m23.373 19.45c.212.227.262.468.152.757-.161.438-.375.817-.642 1.154l.007-.009c-.188.234-.365.474-.56.729l-.669-.884c.19-.285.366-.561.555-.829.061-.087.14-.157.231-.207l.004-.002c.347-.175.617-.441.922-.709z"/><path d="m9.677 9.906q.351.468.663.882c-.207.293-.403.585-.608.864-.051.071-.116.129-.191.17l-.003.001c-.344.172-.626.423-.906.702-.191-.172-.272-.371-.203-.62.116-.408.292-.764.523-1.079l-.007.009c.198-.276.41-.543.616-.812.037-.042.074-.081.114-.117l.001-.001z"/><path d="m12.214 12.597.46.356c.039.307.047.604.122.882s.216.533.324.79c-.026.027-.037.049-.053.054-.363.101-.727.201-1.112.307-.045-.055-.085-.116-.118-.182l-.003-.006c-.133-.316-.21-.683-.21-1.068 0-.016 0-.031 0-.047v.002c.016-.457.217-.817.59-1.089z"/><path d="m19.938 22.675c.372.324.608.686.824 1.059-.788.791-1.916.732-2.579-.334.306-.07.627-.114.925-.221s.587-.247.83-.505z"/><path d="m13.86 8.604c-.695.048-1.308.198-1.777.685-.293-.182-.706-.72-.838-1.087.238-.24.553-.405.904-.454l.008-.001c.545-.082 1.023.037 1.377.499.088.115.193.215.325.359z"/><path d="m19.771 19.391-.44-.346c-.043-.298-.059-.602-.138-.89-.074-.276-.212-.534-.323-.8.367-.172 1.003-.332 1.236-.3.196.498.346 1.014.204 1.57-.08.311-.263.558-.539.766z"/><path d="m18.806 24.619c-.282.105-.541.21-.807.3-.058.024-.126.037-.197.037-.115 0-.221-.036-.308-.097l.002.001c-.219-.147-.41-.301-.587-.47l.002.002c-.238-.243-.265-.557-.176-.872.045-.164.138-.315.207-.465.468.111 1.415.906 1.863 1.563z"/><path d="m13.175 7.375c.327-.117.623-.234.924-.335.039-.013.084-.021.13-.021.088 0 .169.028.236.075l-.001-.001c.153.103.306.207.451.32.559.437.447 1.133.067 1.518-.709-.368-1.288-.885-1.807-1.556z"/><path d="m25.134 22.254c-.327-.227-.662-.44-.974-.683-.24-.188-.336-.442-.212-.752.082-.204.098-.434.257-.644.086.021.161.05.232.087l-.006-.003c.259.175.561.308.886.383l.018.004c.095.022.194.036.229.151-.023.293-.29 1.213-.43 1.456z"/><path d="m7.772 11.865c-.433-.33-.893-.474-1.371-.602.092-.558.28-1.034.41-1.565.147.098.258.17.366.246.214.151.433.297.637.459.279.221.332.439.215.771-.044.128-.079.259-.125.387-.029.086-.073.172-.132.303z"/><path d="m10.196 5.794c-.166-.125-.285-.306-.327-.514l-.001-.005c-.034-.166-.06-.365-.072-.567l-.001-.011c-.002-.024-.003-.051-.003-.079 0-.238.082-.457.219-.631l-.002.002c.2-.276.457-.498.754-.655l.012-.006c.173-.088.347-.176.516-.269.084-.048.185-.076.293-.076.07 0 .137.012.2.034l-.004-.001c-.018.041-.039.077-.065.108l.001-.001c-.702.606-1.054 1.401-1.237 2.288-.015.076-.035.152-.055.227-.029.108-.101.162-.228.156z"/><path d="m20.183 28.961c.083-.091.129-.15.184-.202.528-.496.908-1.144 1.072-1.874l.005-.025c.035-.152.08-.301.107-.454.022-.117.087-.188.205-.245.205.141.346.363.377.619v.004c.02.125.032.251.049.375.009.053.014.114.014.176 0 .287-.111.548-.292.742l.001-.001c-.242.27-.51.506-.85.649-.125.053-.243.122-.363.185-.143.074-.291.092-.508.05z"/><path d="m12.353 9.525c.046-.159.16-.238.274-.308.369-.237.82-.378 1.303-.378.04 0 .081.001.121.003h-.006c.081.003.156.027.22.067l-.002-.001c.368.237.731.481 1.122.74l-.5.023c-.423.013-.823.088-1.2.216l.029-.009c-.528.183-.973.013-1.362-.354z"/><path d="m19.646 22.515c-.52.497-1.132.663-1.815.615-.41-.27-.815-.536-1.244-.819.095-.005.162-.013.229-.01.491.027.964-.069 1.435-.197.121-.038.261-.06.406-.06.306 0 .59.098.821.265l-.004-.003c.042.029.078.059.111.093.023.034.043.072.059.113l.001.004z"/><path d="m17.361 1.125c-.042.118-.14.206-.261.234h-.002c-.306.101-1.107.148-1.445.084-.306-.282-.343-.662-.091-.982.151-.19.349-.336.576-.421l.009-.003c.234-.088.555-.022.615.299.044.241.186.422.373.574.08.064.15.145.227.216z"/><path d="m14.614 30.827c.122-.146.3-.242.5-.255h.002c.3-.033.602-.042.902-.07.465-.044.67.296.544.725-.122.416-.456.644-.857.761-.181.053-.405-.085-.45-.286-.063-.286-.228-.487-.444-.664-.07-.066-.135-.135-.195-.208l-.003-.004z"/><path d="m21.189 7.568c-.087.047-.193.095-.303.136l-.019.006c-.222.068-.448.124-.674.182-.43.111-.591.059-.85-.3-.172-.244-.437-.412-.742-.452l-.005-.001c-.067-.01-.137 0-.203-.015-.111-.025-.219-.062-.333-.095v-.234c.026-.02.055-.04.085-.057l.003-.002c.19-.078.381-.03.574-.004.718.092 1.362.236 1.982.431l-.08-.022c.141.044.257.089.37.141l-.019-.008c.123.043.21.157.213.291z"/><path d="m10.785 24.416c.061-.038.132-.074.205-.103l.009-.003q.448-.125.902-.234c.275-.067.512-.036.687.234.15.23.348.424.627.498.14.037.288.045.43.076.1.022.197.059.309.094-.013.1-.023.176-.03.234-.172.109-.341.098-.502.073-.778-.122-1.551-.269-2.297-.527-.149-.056-.291-.122-.339-.341z"/><path d="m9.162 4.135h.376c.021.355.014.696.066 1.027.05.322.161.635.255.987l-.811.541c-.157-.047-.181-.152-.201-.258-.043-.213-.068-.457-.068-.708 0-.334.044-.657.127-.965l-.006.026c.06-.224.089-.461.263-.65z"/><path d="m13.888 10.175c.564-.449 2.002-.478 2.954.211-.013.022-.022.059-.04.064-.474.144-.951.271-1.446.315-.028.002-.061.003-.095.003-.192 0-.375-.039-.542-.108l.009.003q-.286-.108-.569-.224c-.119-.048-.228-.109-.272-.265z"/><path d="m18.1 21.862c-.672.501-2.301.367-2.955-.239.049-.023.112-.049.177-.071l.014-.004c.272-.076.541-.159.816-.219.425-.093.847-.117 1.253.094.146.075.306.123.46.184.119.036.209.133.235.254v.002z"/><path d="m23.006 25.262c.337.574.213 2.052-.187 2.569h-.361c-.023-.351-.019-.685-.071-1.008s-.16-.636-.251-.98z"/><path d="m6.553 24.33c.043-.014.092-.021.142-.021.132 0 .252.053.339.139.289.26.578.521.845.802.139.146.28.267.475.32.296.082.547.25.792.426s.368.415.428.722c-.094.032-.203.05-.316.05-.2 0-.386-.058-.543-.157l.004.002c-.402-.238-.773-.523-1.002-.952-.192-.37-.466-.673-.8-.895l-.009-.005c-.1-.068-.187-.143-.264-.227l-.001-.001c-.04-.046-.052-.115-.09-.201z"/><path d="m22.391 5.237c.421-.051.772.006 1.079.246.169.132.333.27.488.418.085.087.163.183.23.286l.004.007c.122.176.231.361.351.536.134.193.303.353.498.473l.007.004c.11.072.206.15.292.239.041.042.053.113.08.176-.191.102-.332.021-.446-.081-.289-.259-.576-.522-.841-.805-.138-.148-.272-.265-.472-.316-.336-.085-.624-.272-.89-.486-.199-.165-.295-.4-.382-.697z"/><path d="m14.473 13.552.123-.101c.117.095.231.181.339.276.307.28.678.496 1.088.623l.02.005c.138.04.296.062.459.062.113 0 .224-.011.332-.032l-.011.002c.112-.019.228-.022.33-.03.238.359.286 1.084.097 1.386-.064-.039-.132-.074-.192-.117q-1.151-.851-2.3-1.703c-.126-.095-.252-.187-.284-.371z"/><path d="m23.634 21.49c.229.197.44.402.674.572.224.164.473.293.729.451-.171.39-.384.723-.574 1.096-.078-.059-.134-.092-.181-.136-.283-.272-.527-.582-.722-.923l-.011-.02c-.037-.065-.075-.143-.107-.224l-.005-.013c-.037-.073-.059-.159-.059-.251 0-.135.047-.258.126-.355l-.001.001c.046-.061.082-.128.13-.198z"/><path d="m7.532 8.38c.212.14.389.314.527.516l.004.006c.134.173.269.37.393.575l.016.029c.226.388.19.605-.153.985-.358-.412-.8-.742-1.301-.964l-.024-.009c-.016-.248.151-.405.238-.591s.191-.355.299-.547z"/><path d="m21.303 12.898c.494.287 1.083 1.015 1.116 1.366-.41.383-1.441.263-1.804-.196.022-.089.052-.167.09-.24l-.003.006c.07-.099.144-.187.225-.267.129-.137.228-.304.285-.49l.002-.009c.027-.066.057-.122.091-.175l-.002.004z"/><path d="m10.745 8.884c-.085.396-.167.778-.263 1.224-.728-.846-1.263-1.718-1.501-2.764.106-.051.15.018.201.073.22.234.431.477.661.699.203.195.427.368.644.55z"/><path d="m11.399 17.932c-.05.092-.083.196-.15.27-.224.246-.444.491-.516.829-.004.015-.029.024-.044.036-.41-.199-1.057-.974-1.123-1.346.446-.389 1.388-.301 1.834.211z"/><path d="m21.248 23.095c.071-.361.14-.71.213-1.058.007-.033.04-.059.061-.09.527.361 1.357 1.904 1.477 2.772-.084-.064-.159-.13-.229-.201-.395-.471-.831-.886-1.31-1.246l-.02-.014c-.062-.046-.118-.099-.192-.162z"/><path d="m24.534 6.252c.042-.029.094-.047.15-.047s.108.018.151.048l-.001-.001c.157.092.291.184.418.284l-.008-.006c.394.333.779.677 1.171 1.013.076.069.163.13.256.178l.007.003c.085.046.187.073.294.073s.209-.027.298-.075l-.003.002c.194-.101.293-.248.282-.468.004-.03.015-.057.031-.081v.001c.003-.007.016-.009.046-.026.023.027.063.054.077.091.03.075.048.162.048.254 0 .339-.243.621-.564.682l-.004.001c-.132.027-.266.043-.402.064-.042.105-.084.193-.112.284-.188.636-.828.653-1.218.27.061-.003.131-.005.203-.005s.142.002.213.006h-.01c.351.037.589-.27.556-.592s-.159-.585-.415-.774c-.273-.203-.56-.387-.838-.585-.149-.095-.278-.19-.4-.294l.005.004c-.082-.09-.157-.189-.224-.295l-.005-.009z"/><path d="m10.884 8.364c-.133.107-.244.053-.345-.03q-.468-.39-.932-.788c-.098-.082-.186-.169-.267-.262l-.002-.003c-.088-.104-.164-.219-.122-.41.254-.155.531-.331.814-.496.109-.063.117-.052.299-.005.059.341.094.689.186 1.021s.243.645.369.973z"/><path d="m22.783 25.086c-.29.229-.621.429-.975.584l-.029.011c-.114-.022-.163-.078-.163-.166.004-.657-.21-1.256-.496-1.834-.008-.015 0-.037 0-.068.041-.024.091-.038.144-.038.076 0 .146.029.198.077.382.33.766.656 1.141.992.112.09.183.227.183.381 0 .021-.001.042-.004.063v-.002z"/><path d="m14.748 16.301c.324.245.644.498.976.732.497.358 1 .706 1.5 1.059.135.095.265.197.293.385-.093.117-.182.078-.272 0-.139-.121-.276-.245-.42-.36-.25-.193-.544-.344-.863-.435l-.018-.005c-.122-.039-.261-.061-.406-.061-.09 0-.179.009-.264.025l.009-.001c-.15.028-.306.029-.481.043-.183-.459-.193-.906-.132-1.359z"/><path d="m6.544 23.197c-.172-.008-.316-.022-.459-.021-.26 0-.388.107-.468.351-.07.21-.026.403.059.594.082.194.212.354.375.47l.003.002c.273.187.549.369.827.549.23.15.445.312.558.578-.096.08-.194.046-.278.009-.104-.045-.194-.101-.274-.168l.002.001c-.445-.378-.884-.761-1.326-1.143-.029-.025-.059-.051-.089-.076-.302-.248-.742-.252-.999.147l-.062.362c-.063-.064-.113-.093-.129-.135-.027-.07-.042-.151-.042-.236 0-.304.198-.562.472-.652l.005-.001c.133-.035.3-.066.47-.088l.021-.002c.034-.085.079-.189.117-.293.206-.567.755-.691 1.218-.25z"/><path d="m9.241 9.149c-.14.348-.169.389-.363.527-.385-.543-.769-1.086-1.142-1.613.154-.404.41-.702.697-.808.172.299.234.644.378.96s.284.618.43.934z"/><path d="m10.847 5.713c-.012-.358.027-.723.242-1.073.455-.015.872.048 1.184.351v1.179z"/><path d="m22.757 22.807c.065-.199.164-.38.351-.506l1.147 1.62c-.124.351-.351.596-.647.838-.058-.078-.112-.166-.159-.259l-.005-.011c-.08-.199-.135-.41-.217-.605-.147-.351-.304-.696-.471-1.078z"/><path d="m20.805 27.377c-.606-.077-.93-.204-1.09-.4v-1.163c.062.018.112.031.162.047.376.123.733.31 1.138.337.035 0 .067.033.096.048.083.446-.041.918-.306 1.131z"/><path d="m19.171 31.071c-.257-.186-.521-.365-.773-.56-.191-.149-.164-.41.043-.536.035-.019.078-.04.123-.059l.009-.003q.369-.172.738-.342c.258-.121.392-.063.488.21.179.512-.108 1.103-.629 1.29z"/><path d="m14.561 26.99.19-.144c.747.059 1.442.276 2.125.632-.04.05-.068.117-.117.142-.364.197-.742.335-1.168.234-.217-.052-.439-.086-.656-.141-.378-.098-.491-.312-.374-.722z"/><path d="m17.435 4.991-.2.16c-.761-.037-1.446-.287-2.129-.626.042-.059.088-.111.141-.156l.001-.001c.23-.152.513-.243.817-.243.044 0 .089.002.132.006h-.006c.326.037.618.092.902.168l-.043-.01c.362.087.478.299.385.703z"/><path d="m12.85.926c.241.181.442.351.66.492.172.112.24.245.169.486-.073.052-.158.105-.245.153l-.013.006c-.244.117-.494.224-.74.338-.262.122-.392.07-.488-.202-.163-.461.087-1.059.527-1.253.039-.012.084-.019.131-.019z"/><path d="m6.242 12.819c-.03-.117-.08-.207-.071-.293.035-.327.089-.651.141-1.008.102.016.183.009.244.042.282.15.562.306.836.468.185.111.18.117.272.368-.036.181-.074.369-.111.548-.137.091-.262.059-.38.021-.287-.088-.572-.181-.93-.146z"/><path d="m24.442 18.965c.481.004.869.28 1.326.207.122.488-.028.894-.132 1.299-.054 0-.078.012-.092.004q-.508-.285-1.013-.575c-.109-.06-.182-.174-.182-.305 0-.024.003-.048.007-.071v.002c.026-.172.053-.343.086-.562z"/><path d="m13.015 28.915c-.094.234-.176.472-.283.698-.046.1-.146.169-.261.169-.03 0-.059-.005-.086-.013l.002.001c-.347-.092-.691-.194-1.03-.31-.176-.059-.208-.181-.121-.348.096-.196.244-.354.425-.461l.005-.003c.076-.045.168-.072.267-.072.023 0 .045.001.067.004h-.003c.312.066.618.163.925.252.032.006.056.046.093.084z"/><path d="m15.787 21.097c-.016.021-.03.053-.053.064-.306.159-.663.27-1.04.311l-.013.001c-.006 0-.013 0-.02 0-.075 0-.146-.019-.209-.052l.002.001c-.445-.219-.888-.444-1.33-.668-.015-.008-.023-.03-.053-.072.1-.043.225-.087.353-.122l.022-.005c.387-.08.769-.08 1.15.059.31.113.632.196.946.299.098.034.22.045.246.184z"/><path d="m18.968 3.033c.155-.245.184-.558.404-.819.492 0 .932.204 1.373.347.023.054.046.082.044.108-.022.454-.546.824-.975.692-.195-.059-.393-.112-.589-.167-.119-.032-.123-.032-.257-.159z"/><path d="m18.914 11.266c-.146.139-.328.14-.498.176-.116.027-.249.042-.385.042-.192 0-.376-.031-.549-.087l.012.004c-.332-.112-.667-.215-.999-.326-.097-.033-.19-.08-.314-.132.059-.073.088-.135.131-.15.293-.101.588-.202.888-.281.031-.007.066-.011.102-.011.076 0 .148.017.213.047l-.003-.001c.423.198.838.41 1.255.622.057.033.104.065.15.099l-.004-.003z"/><path d="m18.962 2.147c.027.387-.095.673-.389.896l-1.083-.221c-.205-.287.005-.611-.032-.907.132-.117.263-.091.383-.073.287.046.573.098.856.164.097.023.181.095.264.141z"/><path d="m18.869 28.41c.658.266.756.321.873.513-.045.059-.092.112-.144.16l-.001.001c-.136.11-.289.201-.418.318-.351.32-1.165.204-1.471-.283-.013-.031-.024-.068-.03-.105v-.003z"/><path d="m13.381 28.966c.394 0 .761.145 1.155.2.085.331.043.637-.034.937-.234.085-.443.007-.65-.025-.181-.027-.362-.067-.541-.107-.234-.052-.307-.157-.282-.388s.104-.374.352-.616z"/><path d="m12.186 3.119c.317-.316.58-.609.952-.691.079-.021.169-.033.262-.033.339 0 .641.158.837.403l.002.002c.022.029.042.061.057.096l.001.003c.006.021.01.045.011.069v.001c-.354.224-.803.287-1.12.619z"/><path d="m10.11 30.223c-.074-.308 0-.619-.122-.897-.112-.005-.143.051-.117.128.07.225.004.445-.019.666-.01.039-.024.073-.043.104l.001-.002c-.247-.045-.596-.259-.769-.476.1-.106.221-.202.299-.326s.117-.282.184-.445c.086.007.166.021.243.042l-.009-.002c.1.042.185.086.266.137l-.007-.004c.227.131.45.27.678.397.301.168.362.351.196.697-.256.1-.52.126-.781-.018z"/><path d="m21.147 1.716c.367-.046.458-.042.739.039.019.146.044.306.059.468.011.106 0 .215.019.32.009.053.059.099.093.149l.059-.018c-.014-.123-.021-.265-.021-.409 0-.011 0-.021 0-.032v.002c.018-.176.043-.33.075-.481l-.005.029c.269.006.542.16.791.447-.101.106-.224.202-.303.325s-.109.267-.172.431c-.009 0-.02 0-.03 0-.077 0-.151-.009-.223-.025l.007.001c-.108-.049-.2-.1-.287-.158l.007.004c-.219-.124-.434-.255-.658-.37-.304-.157-.371-.441-.15-.723z"/><path d="m12.933 3.878-.563.871c-.338-.27-.773-.24-1.159-.347.041-.4.392-.852.695-.926.065-.015.14-.024.217-.024.335 0 .63.167.808.423z"/><path d="m19.051 28.091c.196-.296.383-.578.585-.882.316.33.768.234 1.138.382-.039.372-.371.819-.663.901-.375.106-.826-.061-1.061-.4z"/><path d="m12.234.948c-.102.293-.226.54-.27.8s0 .517.004.804c0 0-.012.035-.035.041-.277.071-.557.088-.814-.064-.21-.125-.268-.322-.183-.552.103-.271.285-.492.518-.641l.005-.003c.203-.132.418-.244.629-.361.043-.013.092-.022.143-.025h.001z"/><path d="m19.797 31.037c.008-.095-.006-.169.022-.218.247-.417.277-.861.179-1.323-.004-.017.007-.037.011-.059.325-.225.805-.117 1.063.239.059.248-.047.461-.196.644-.276.338-.647.541-1.079.716z"/><path d="m17.115 29.11c.234.173.441.318.64.472.041.042.077.091.104.144l.002.003c-.016.148-.109.199-.211.241-.233.09-.504.151-.785.169h-.008c-.016.002-.034.003-.053.003-.146 0-.276-.063-.366-.164-.191-.2-.335-.417-.301-.736.18-.029.34-.059.502-.08s.327-.036.479-.052z"/><path d="m15.849 2.727c-.06.023-.133.045-.209.061l-.01.002c-.259.029-.519.051-.761.075-.234-.176-.451-.333-.662-.502-.045-.036-.059-.11-.088-.162.081-.118.202-.202.344-.233l.004-.001c.187-.049.376-.093.567-.126.036-.008.078-.013.121-.013.193 0 .364.095.469.24l.001.002c.141.188.265.379.224.657z"/><path d="m7.44 14.316c-.336.092-.635-.169-.979-.08-.213-.371-.148-.769-.268-1.124.062-.037.137-.059.217-.059.057 0 .111.011.161.031l-.003-.001c.284.09.565.188.859.286.097.199.108.684.012.947z"/><path d="m25.629 17.84c.015.351.156.68.133 1.043-.18.073-.335.004-.489-.041-.222-.065-.442-.139-.71-.224-.159-.281-.062-.612-.046-.934.21-.05.79.032 1.111.155z"/><path d="m23.61 16.395c.401 1.009.413 2.011.1 3.063-.17-.234-.282-.461-.228-.702.121-.542-.04-1.04-.185-1.545-.028-.078-.059-.181-.084-.286l-.004-.022c-.044-.244.101-.439.402-.508z"/><path d="m8.367 15.557c-.391-1.002-.41-1.995-.073-3.022.18.24.26.492.207.761-.095.479.012.927.155 1.376.043.116.084.257.114.403l.003.019c.046.256-.11.438-.407.463z"/><path d="m16.871.081c.118-.018.253-.028.392-.028.331 0 .649.059.942.168l-.019-.006c.212.08.357.266.449.476.027.063.015.142.022.238-.359.027-.687.082-1.012.068-.304-.012-.508-.227-.638-.492-.062-.126-.088-.272-.136-.425z"/><path d="m15.099 31.895c-.459.049-.903.028-1.321-.151-.197-.092-.349-.255-.424-.454l-.002-.006c-.025-.064-.017-.141-.027-.239l.376-.032c.117-.01.234-.011.348-.03.372-.064.629.012.906.431.09.125.144.282.144.451 0 .011 0 .021-.001.032v-.002z"/><path d="m15.883 1.97c.08-.123.212-.205.365-.215h.001c.444-.038.686-.009.878.112.128.293.117.594-.012.926-.311.015-.626.015-.973 0-.014-.304-.269-.516-.259-.824z"/><path d="m5.842 21.153c-.025.111-.073.173-.221.136-.698-.825-1.271-1.748-1.555-2.835.109-.037.234-.059.364-.059.153 0 .3.03.434.084l-.008-.003c-.018.117-.028.242-.059.362-.121.512.016.968.308 1.381.191.27.41.52.616.779.044.053.084.107.12.155z"/><path d="m26.162 10.828c.026-.049.059-.111.091-.172.053.014.091.012.107.03.133.154.274.304.392.468.491.683.901 1.408 1.147 2.218.016.054.024.11.039.181-.112.016-.24.025-.371.025s-.26-.009-.386-.026l.015.002c-.108-.13-.036-.243-.012-.351.033-.126.052-.27.052-.418s-.019-.293-.054-.43l.003.012c-.059-.231-.16-.432-.295-.606l.003.004z"/><path d="m14.865 29.226h.987c0 .302.299.502.246.844-.341.263-.739.101-1.119.151-.263-.303-.231-.625-.114-.995z"/><path d="m25.447 17.471c-.273.073-.518-.018-.761-.059-.061-.01-.126-.09-.162-.153-.132-.229-.176-.771-.091-1.059.146-.123.323-.091.487-.091.278.225.577.986.527 1.362z"/><path d="m7.405 14.609c.223.423.269.885.114 1.229l-.493.042c-.308-.404-.44-.851-.541-1.354.335-.035.627-.037.92.083z"/><path d="m15.05.556c-.132.04-.21.067-.289.087-.138.024-.253.052-.365.085l.024-.006c-.2.065-.362.202-.459.379l-.002.004c-.058.095-.115.175-.176.252l.004-.005c-.326-.176-.548-.423-.78-.65.02-.037.022-.049.03-.053.45-.253.987-.404 1.559-.41h.002c.185-.006.283.148.453.317z"/><path d="m18.171 30.679c.234.034.599.323.808.635-.12.102-.266.177-.427.214l-.007.001c-.242.07-.488.129-.734.184-.293.066-.561.026-.783-.194-.012-.014-.021-.031-.028-.049v-.001c-.001-.009-.002-.019-.002-.029s.001-.02.002-.03v.001c.065-.03.141-.055.22-.071l.007-.001c.41-.039.711-.237.892-.611.008-.015.025-.026.053-.05z"/><path d="m17.657 27.312c.075-.112.194-.19.332-.208h.002c.376-.04.753-.076 1.13-.111.054.001.107.007.157.017l-.005-.001c-.04.287-.165.539-.348.737l.001-.001c-.163.187-.468.222-.696.104s-.468-.207-.561-.476c-.005-.017-.009-.038-.011-.059v-.002z"/><path d="m12.687 4.983c.14-.414.26-.774.681-.904.072-.022.166-.05.226-.022.289.133.606.239.738.592-.064.117-.178.2-.313.22h-.002c-.392.063-.851.104-1.318.115h-.011z"/><path d="m11.219 29.794c.492.157.976.247 1.405.477-.069.351-.208.479-.517.513-.327.036-.612-.073-.881-.24-.072-.042-.12-.12-.12-.208 0-.014.001-.028.004-.042v.001c.027-.162.068-.32.11-.502z"/><path d="m20.89 1.647c-.034.149-.072.317-.109.478-.286.023-1.074-.217-1.381-.41-.019-.257.117-.451.372-.484.301-.039.599-.02.878.122.123.052.213.16.24.291z"/><path d="m9.394 3.661c.087-.468.731-1.316 1.121-1.485.04.126.059.262.125.371s.176.172.275.268c-.065.054-.112.101-.166.138-.311.214-.624.424-.937.638-.121.085-.246.148-.418.071z"/><path d="m21.469 29.8c-.059-.293-.059-.293-.392-.635.051-.05.105-.097.161-.14l.004-.003c.33-.221.666-.434.991-.661.063-.052.145-.083.234-.083.039 0 .077.006.113.017l-.003-.001c.005.037.029.09.013.124-.242.527-.554 1.001-1.023 1.357-.029.013-.062.022-.098.026h-.001z"/><path d="m15.369 1.499c-.243.135-1.092.32-1.321.283-.162-.595.31-1.023 1.054-.941z"/><path d="m16.878 31.125c-.085-.218-.164-.424-.253-.654.193-.132.439-.139.666-.189.217-.048.436-.158.666-.089.092.648-.357 1.034-1.078.932z"/><path d="m18.719 25.579.555-.141c.194.396.186.774.109 1.151-.303.18-.336.186-.664.106-.179-.351-.246-.714-.001-1.116z"/><path d="m13.253 5.272c.11.174.175.386.175.613 0 .056-.004.111-.012.164l.001-.006c-.029.221-.111.39-.368.41-.112.009-.222.038-.345.059-.19-.381-.17-.751-.102-1.134.189-.163.412-.123.65-.105z"/><path d="m23.302 13.945c.478.217 1.359 1.34 1.497 1.836-.286.225-.543.176-.667-.143-.222-.568-.462-1.049-.739-1.506l.024.043c-.044-.073-.077-.153-.115-.229z"/><path d="m8.626 18.087c-.626-.519-1.098-1.156-1.463-1.899.05-.032.107-.063.168-.089l.008-.003c.253-.079.382-.027.499.21.102.209.185.427.289.636.159.321.329.637.493.956.025.048.044.099.066.148z"/><path d="m12.707 26.16 1.681.637c-.048.152-.095.303-.139.444-.54.06-1.356-.5-1.542-1.082z"/><path d="m17.866 26.861c-.266-.153-.242-.38-.221-.589.026-.255.125-.468.427-.51.146-.028.268-.059.388-.097l-.024.006c-.015.218-.045.397-.035.575s.064.341.101.527c-.201.117-.424.083-.636.089z"/><path d="m19.284 5.814-1.679-.627c.044-.146.085-.283.125-.417.518-.112 1.302.394 1.554 1.044z"/><path d="m14.123 5.108c.293.164.249.433.213.675-.032.217-.149.396-.404.434-.134.029-.248.062-.357.101l.019-.006c-.092-.204.04-.38 0-.557s-.07-.358-.109-.554c.21-.094.434-.037.639-.094z"/><path d="m11.583 31.144c.077-.157.205-.179.328-.167.037.005.079.007.122.007.202 0 .39-.059.549-.16l-.004.002c.087-.054.218-.037.32-.052.21.248.34.481.234.814-.095 0-.188-.007-.28-.019l.011.001c-.439-.09-1.123-.314-1.28-.426z"/><path d="m20.38.816c.005.012.007.026.007.04 0 .065-.052.117-.117.117-.004 0-.009 0-.013-.001h.001c-.371-.029-.702.093-1.025.249-.015.007-.038 0-.059-.004-.277-.18-.366-.382-.335-.769.081-.081.182-.059.272-.033.41.117.819.234 1.229.358.016.005.026.027.04.042z"/><path d="m27.662 14.005.4-.078c.234.713.249 1.434.373 2.149-.166.03-.316.051-.451-.059-.074-.16-.013-.314.043-.452.121-.293.077-.568-.047-.844-.099-.222-.195-.44-.317-.716z"/><path d="m4.314 17.98-.392.054c-.203-.702-.265-1.395-.369-2.104h.453c.015.062.024.134.025.208-.01.104-.034.2-.07.289l.002-.007c-.117.28-.088.55.033.819.071.159.146.317.217.477.031.068.057.14.101.263z"/><path d="m11.836 26.581c.155-.282.303-.351.606-.332.214.227.394.457.613.644.21.176.46.307.682.476-.647-.219-1.313-.385-1.901-.788z"/><path d="m11.923 12.386-.26.134c-.21-.194-.397-.41-.625-.566s-.494-.255-.774-.393l.314-.468z"/><path d="m21.178 2.788.343.176c-.055.15-.1.275-.142.39.026.204.189.394-.014.618-.306.023-.501-.23-.77-.357z"/><path d="m11.395 28.364-.565.788c-.144.012-.254-.05-.358-.184.131-.221.211-.458.025-.694l.092-.277c.337-.011.543.215.805.366z"/><path d="m20.407 19.504c.308.468.791.702 1.333.899l-.329.485-1.331-1.271c.088-.116.186-.155.327-.113z"/><path d="m19.554 5.744c-.209-.234-.374-.468-.585-.644s-.448-.293-.666-.455c.638.184 1.271.374 1.847.741-.105.306-.341.355-.596.358z"/><path d="m15.115 5.96c-.204.02-.404.117-.617.063.018-.303.035-.585.052-.875.253-.075.41-.074.64 0 .084.311.062.541-.075.812z"/><path d="m17.451 26.849h-.658c-.066-.289-.069-.558.062-.839l.652-.092c-.022.184-.045.332-.054.481s-.002.287-.002.45z"/><path d="m19.087 1.691c-.052.01-.111.015-.172.015-.016 0-.032 0-.048-.001h.002c-.43-.076-.858-.158-1.288-.241-.022-.005-.039-.036-.064-.059.021-.027.034-.059.056-.068.232-.12.506-.19.796-.19.099 0 .196.008.291.024l-.01-.001c.271.043.429.234.437.521z"/><path d="m12.875 30.29c.334-.059.572.083.828.121s.498.074.779.117c-.037.059-.053.117-.082.124-.198.064-.454.128-.714.179l-.047.008c-.287.047-.509-.096-.68-.316-.046-.056-.053-.136-.084-.233z"/><path d="m11.688 19.875c.351-.04.972.102 1.624.369-.041.043-.069.092-.111.114-.078.045-.169.08-.265.102l-.007.001c-.102.018-.229.042-.313 0-.293-.148-.576-.324-.861-.491-.022-.011-.033-.046-.067-.095z"/><path d="m20.274 12.094c-.566.046-1.062-.2-1.58-.368.272-.181.527-.339.863-.126.242.154.518.254.718.495z"/><path d="m16.004 5.912h-.541v-.754h.493c.237.266.242.362.047.754z"/><path d="m20.965 6.389c-.117-.141-.226-.285-.347-.421-.091-.102-.198-.189-.288-.293-.028-.032-.023-.092-.048-.213.577.399 1.072.778 1.493 1.271-.207.047-.267.024-.81-.345z"/><path d="m16.534 26.859c-.2.012-.389.014-.579-.068-.136-.22-.125-.436.019-.668l.514-.055c.09.133.016.27.026.4s.012.249.019.392z"/><path d="m11.719 26.384c-.348-.006-1.266-.785-1.463-1.177.171-.074.261.085.383.132.144.061.263.122.378.189l-.015-.008c.125.176.226.328.343.468s.248.265.374.395z"/><path d="m14.933 26.481c.026-.106.059-.222.087-.351h.735c-.049.187-.094.362-.145.553-.232.042-.452.026-.677-.202z"/><path d="m17.02 5.437c.042.166.017.293-.097.41h-.662c.037-.184.072-.359.111-.552.232-.067.441.007.648.142z"/><path d="m14.679 4.513c-.117-.087-.222-.171-.332-.247s-.209-.131-.351-.221c.494.003.942-.006 1.387.05z"/><path d="m6.587 27.604c-.019-.03-.031-.067-.031-.106 0-.013.001-.026.004-.038v.001c.011-.186.133-.293.328-.293s.321.107.332.289-.094.303-.283.343c-.017.004-.036.006-.056.006-.088 0-.165-.042-.215-.106v-.001c-.028-.028-.054-.059-.078-.092l-.002-.002z"/><path d="m25.384 4.356c.013.037.02.079.02.123 0 .058-.013.113-.036.162l.001-.002c-.059.152-.162.165-.286.162-.188-.005-.311-.124-.311-.307s.112-.323.3-.315c.117.005.16.035.264.099.023.02.04.046.048.076v.001z"/><path d="m17.95 27.92h-1.333l-.011-.037c.142-.064.259-.127.371-.196l-.015.008c.111-.076.195-.195.379-.187z"/><path d="m12.368 25.951c-.155.138-.361.223-.586.223-.02 0-.041-.001-.061-.002h.003c-.153-.149-.279-.29-.363-.51.358.066.681.132 1.007.29z"/><path d="m14.016 26.349.052-.221h.726c-.022.153.004.296-.094.431-.236-.002-.448-.084-.683-.21z"/><path d="m17.931 5.841h-.752c.032-.154.059-.287.093-.447.14.033.252.054.361.087s.199.07.325.117c-.009.083-.018.161-.027.244z"/><path d="m20.308 5.811c.111.151.219.298.327.444-.365-.004-.71-.087-1.019-.233l.015.006c.151-.138.353-.223.575-.223.036 0 .071.002.106.006z"/><path d="m20.648.905c.201.035.767.334 1 .527-.486.211-.722.018-1-.527z"/><path d="m10.329 30.514h.629l.435.547c-.09.005-.133.02-.169.009-.165-.047-.761-.419-.896-.556z"/><path d="m6.319 15.628c-.046-.028-.085-.056-.122-.086l.002.002c-.049-.046-.094-.097-.136-.141-.022-.263-.022-.263.069-.453.137.186.187.349.187.678z"/><path d="m25.843 17.052c-.139-.228-.164-.445-.198-.677.341.147.389.312.198.677z"/><path d="m16.335 31.944.277-.262c.183-.039.293.038.422.162-.171.067-.37.105-.577.105-.043 0-.086-.002-.128-.005z"/><path d="m17.375 27.112c-.201.231-.399.231-.872-.009.324-.017.589.006.872.009z"/><path d="m15.626.058c-.332.318-.395.323-.644.065.197-.094.398-.075.644-.065z"/><path d="m13.102 26.034c.037-.007.079-.012.122-.012.187.033.373.069.569.106l-.045.139c-.279.014-.385-.025-.646-.234z"/><path d="m18.865 5.97-.654-.123c.017-.068.027-.11.04-.163.238.037.461.07.636.228z"/><path d="m15.41 4.854h-.806c.049-.099.15-.166.267-.166.02 0 .039.002.057.006h-.002c.168.026.344.04.478.168z"/><path d="m14.37 27.569-.307-.094c.177-.063.177-.063.307.094z"/><path d="m17.967 4.539c-.162.033-.283.037-.379-.125.142.013.27.058.382.127l-.004-.002z"/><path d="m15.404 4.861.022.006c.019.016 0 0-.016-.013z"/></svg>