<svg height="32" viewBox="0 0 32 32" width="32" xmlns="http://www.w3.org/2000/svg"><path d="m8.3 15.889q4.977 4.977 9.929 9.953-1.362 1.362-2.959 1.597t-3.082-.446-2.922-2.117-2.117-2.922-.446-3.095 1.597-2.971zm6.437-7.551-4.878 1.188-3.565 3.516-1.089 2.872-.545-.52.619-3.243 4.011-4.036 4.481-2.055-.025-.05 1.436-1.436 4.407-.074 2.278 2.278-.47.495-1.907 1.906-2.006-2.006h-.792l-1.164 1.164h-.792zm9.954 6.759-.718.718q1.164 3.12-1.312 5.596-3.64-3.615-9.953-9.929 2.476-2.451 5.62-1.312l.718-.718zm-16.565-.446 3.343-3.343 11.365 11.365-3.343 3.343zm19.164-4.233.049 1.436-2.6 2.625-.743-.768-3.59-3.565-.743-.743 2.625-2.625 1.436.05z"/></svg>