<svg height="32" viewBox="0 0 62 32" width="62" xmlns="http://www.w3.org/2000/svg"><path d="m57.76 8.704h-2.72v1.056h1.184l.32.32v3.52l-.768.256-23.2 1.088-1.12-1.088h-.896l-1.76 1.824h-.416v.352l-3.168 3.104-1.376 1.152-1.12.512-1.696.448-1.536.096-1.184-.128-1.12-.352-1.056-.576-.864-.192-.864.064-.512.16-.352.448-.224.864v.864l-.704.544-.384.64-.832 3.328.352 1.664.608.448v.416l-.64.16-7.808-2.272-.096-.736.096-1.472.288-1.792.768-2.432.96-2.176 1.248-1.92 1.728-1.952.64-.8.192-.608v-.8l-.416-.736-.8-.832-1.184-.672.736-.736h1.664l.384-.416 1.728-.416.48-.544.512-.672.384-.928.192-1.024.512-.64h.48l.192-1.312.096-.928h9.408l1.248 1.28h25.184l.64-.64h5.6l.992 1.024zm-32.864 9.056v-1.056l-.224-.768-.48-.48-.64-.224-1.664-.064h-2.272l-.64.864-.128.704.064.512.224.384.32.384-.288.256-.48-.448-.416-.704-.288-1.024-.128-.544-.288.032-.608.544-.48.704-.192.96v.992l.448.896.768.608 1.312.384h1.088l1.28-.128 1.28-.352.864-.448.8-.608.512-.608z"/></svg>