<svg height="32" viewBox="0 0 41 32" width="41" xmlns="http://www.w3.org/2000/svg"><path d="m37.024 14.08v2.464h-5.184q-.384 3.808-3.088 6.512t-6.544 3.152v5.184h-2.464v-5.184q-3.84-.448-6.528-3.136t-3.136-6.528h-5.152v-2.464h5.152q.448-3.776 3.152-6.512t6.512-3.12v-5.184h2.464v5.184q3.808.384 6.528 3.12t3.104 6.512zm-14.816 6.752v2.912q2.752-.384 4.784-2.4t2.416-4.8h-2.944v-2.464h2.944q-.384-2.752-2.416-4.768t-4.784-2.4v2.944h-2.464v-2.944q-2.752.384-4.784 2.4t-2.416 4.768h2.944v2.464h-2.944q.384 2.784 2.416 4.8t4.784 2.4v-2.912zm-1.248-7.52q.832 0 1.44.592t.608 1.424-.608 1.44-1.44.608-1.424-.608-.592-1.44.592-1.424 1.424-.592z"/></svg>