<svg viewBox="0 0 51 51" xmlns="http://www.w3.org/2000/svg"><path d="m25.48 11.14 6.12 6.12 2.07-2.07-8.19-8.19-8.18 8.19 2.06 2.07z"/><path d="m25.48 39.86-6.12-6.12-2.06 2.07 8.18 8.19 8.19-8.19-2.07-2.07z"/><path d="m34.64 18.1c-1.37.54-5.14 2.87-7.75 4.6-.04-.02-.07-.04-.11-.06-.27-3.55-.85-8.87-1.3-10.52-.46 1.65-1.04 6.94-1.32 10.5-.01 0-.02.01-.02.01-2.53-1.84-6.19-4.31-7.53-4.91.76 1.25 3.69 4.55 5.84 6.82-.1.3-.16.61-.16.95 0 .29.05.56.12.82-2.25 2.18-5.31 5.36-6.12 6.57 1.36-.54 5.12-2.86 7.73-4.6.04.02.09.05.13.07.27 3.55.85 8.85 1.29 10.5.45-1.65 1.04-6.96 1.32-10.51h.01c2.53 1.84 6.2 4.32 7.54 4.92-.77-1.25-3.71-4.58-5.87-6.85.09-.29.15-.6.15-.92 0-.28-.05-.54-.11-.8 2.27-2.17 5.34-5.36 6.16-6.59z"/><path d="m13.87 18.61-6.85 6.86 6.75 6.76 2.07-2.07-4.69-4.69 4.79-4.79z"/><path d="m37.23 18.74-2.07 2.07 4.69 4.69-4.79 4.79 2.07 2.06 6.85-6.85z"/></svg>