<svg height="32" viewBox="0 0 32 32" width="32" xmlns="http://www.w3.org/2000/svg"><path d="m11.648 15.21h2.579l1.315-5.408h-6.174l-2.13 2.23h-5.541l-1.697 7.522h5.708l1.93 2.38h3.228l-1.331-5.741h-5.458l5.025-.682 2.346-3.478h1.132zm11.699 5.008-.1.25 4.193 2.063-4.992-.483q-.216.366-.416.666-.2.316-.666.915-.499.566-.799.799.133-.25.466-1.015l.2-.499q.017-.067.083-.241t.1-.275q.366-1.015.666-2.047.349-1.298.516-2.08.083-.333.216-1.032t.183-1.048q.266-1.714.383-4.243.067-1.797.033-4.377.216.433.416 1.032.183.582.3 1.082.017.05.042.158t.042.158l4.826-.133-4.56 1.697q.017.1.05.333.083.749.083 1.331l2.479.05-2.463.582q0 .666-.05 1.365l7.422.998-7.688.799q-.083.383-.116.499-.183.782-.283 1.098v.017l2.213.765-2.413-.166-.15.466q-.033.083-.108.258t-.108.258zm-7.738-4.609.666-2.646h2.995q-.1.599-.15.882l-.266 1.414q-.017.05-.033.166t-.033.183h-3.178zm-3.062 6.723.516-2.38h4.543q-.333 1.015-.865 2.38h-4.193zm3.877-10.168.666-2.629h2.529q-.083 1.281-.25 2.629zm-3.228 6.806.533-2.513h4.859q-.017.133-.133.532-.2.815-.532 1.98h-4.726z"/></svg>