<svg height="32" viewBox="0 0 87 32" width="87" xmlns="http://www.w3.org/2000/svg"><path d="m82.528 9.728.256.288v2.656l-.416.416h-13.92l.512.512h1.28v1.6l-.128.704-.416.736-.576.448-.672.288h-22.816l-1.376.352-1.12.704-1.024.8-.448.576-2.304 6.432-.512.992-.672.608-.992.608-1.152.128-1.344-.128-9.92-2.784-.416-.16-.16-.48 1.088-.448.32-1.824.704-1.792 1.12-1.952 1.408-1.664.736-.768.192-.64-.128-.672-.416-.576-1.056-.512-1.248-.16-3.2-.096v.672l-.672.352.96 9.664-.352.576-2.144.256-.448-.32-.448.064-.32.384-3.648.352-.224-.256-.608.064-.192.288-1.76.192-.384-.256-.64-3.968-.608-.032-.128-1.152h-.32l-.544-.704h-3.712v.224l-3.264.96-.48-.48.32-4 .064-3.584-.096-4-.096-3.04.192-.832.192-.16h1.536l.224.224h1.376l.384.736h21.696l1.984-.928h-.864l-.416-.384 1.472-3.232.48-.32h7.136l.608.256.448.512.128.768v1.184l.384.352v.352l-.736.736h-.832v.704h5.152l1.696.448 22.304.96.416.32v.992l-.64.64.224.224zm-41.248 7.52v-.384l-.128-.448-.32-.256h-4.672l-.16.736.192.928.352.576-.288.352-.448-.384-.352-.672-.256-.8-.128-.736-.288.096-.32.32-.32.672.064.672.352.672.736.48-.128.576-.448-.032-.704.064-.48.192-.512.608-.256.896-.16 1.088-.352.16-.448.48-.352.544-.608 1.696 4.16 1.6.896.256h.928l.672-.288.48-.48 3.168-8.704zm23.808-3.904v-.896h-13.728v.896z"/></svg>