<svg height="32" viewBox="0 0 91 32" width="91" xmlns="http://www.w3.org/2000/svg"><path d="m85.28 6.72 1.216 1.408v7.424l-1.184 1.344h-2.304l-3.168 2.208h-1.184v.64h-1.056l-.256-.288-.8.896h-3.936v1.184l.96 1.088h.544l4.864 5.632v.544l.736.832-1.312 1.536-.96-1.088h-.416l-4.896-5.664v-.352l-.928-1.088h-1.088l-.832-.352v-.384h-.8v-1.44h.768v-.32h.416v-.288h-2.592l-.992 1.632h-3.072v-1.408h-.544l-.224.832-.416 1.152-.768.896-1.056.544-1.6.128-.32-1.28h-1.536l-2.4 3.936v1.6h-5.6l-10.56-6.816v-3.456l-.48-.576h-1.856l-.512.608h-1.44v-.768l-3.584-1.344h-.896l-.736-.992h-16.992v1.024l-2.112 3.712h-3.232l-.384-.448v-2.4h-1.12l-.512-.64v-8.096l.608-.704h5.632l1.472 1.344 2.496.032.448.32 13.536-.064 5.792-.608v-1.184l-.736-.576-3.84-.64-.704-.288v-.384l5.504-.096h3.296l8.864 2.208v.832l.288.128v-.896l.384-.352h1.6v-1.248l-.352-.416h-1.792v-.576h.416v-.608h-.416v-.448h.768l1.12-1.28h5.632l.32.352 1.728-1.792.544-.416.672-.16h13.152l.192.32.736 2.72h3.616v1.824h-3.776l-1.792 2.048.416.512.864-.992h1.728l.448.512h7.424l.64-.736h4.224zm-74.528 9.12v-.416l-.832 1.28-3.392.064v1.856l.16.192h2.208zm43.296 5.92v-1.248l-.064-.416-.224-.352-.192-.16-.192-.096h-2.4l-.384.224-.256.384-.192.48v3.456h1.952zm1.824-18.368 2.304.032-.96-1.152h-.352zm4.832 17.632v-.448l-.064-.576h-2.304v1.088l.128.512.16.16h1.216l.416-.128.288-.256zm6.88-17.632 1.344-1.824-10.72-.032-.256.32 1.312 1.536z"/></svg>