<svg height="32" viewBox="0 0 99 32" width="99" xmlns="http://www.w3.org/2000/svg"><path d="m89.184 9.696h5.408v3.072h-5.344v-.416h-1.024v.416h-1.12v-.448h-16.352v1.792h.768l.352.352v.448l-.352.352h-.928l-.768.384-1.536.128-.32.224h-20.32l-1.216.096-1.184.544-1.088.8-.352.384-3.744 8.16-.64.672-.8.544-1.12.448-1.376.064-1.184-.128-1.696-.384-5.952-1.76-.672-.064-.928.064v1.472h-.768v-1.536h-.512v.832l-.256.32h-2.016l-.256-.256-.224.224h-4.832l-.256.288h-1.12l-.288-.32h-1.024v-6.528l-.672.64q-.384-.416-.448-.416v-1.312h-5.344v1.856l-.224.352-.448.32-2.624.64-.288-.16v-2.72l.192-3.488.032-2.912-.064-2.912-.16-1.632.256-.928.48-.16h.992l.288.288h1.312l.352.48 6.304-2.752h18.464v-.544h2.144l.64-.64h3.52l.32-.576.128-.544v-.576l.16-.224h1.12l.256.224v.48l.096.544.864 1.248h2.88l.192-.224h.224l.832.832h1.792l.384-.384h6.88l.512.544h14.176l.928.352v1.056h1.216l.512.544v.32l-.48.512h-.832v.832l-.32.32v.832h16.384v-.352h1.184v.544h.928v-.544zm-58.016 6.368v-.8l-.224-.384-.416-.384-.64-.224h-1.632l-.512.096-.352.352-.224.576-.128.832.224.8.48.672.672.416h.896l.832-.32.8-.832zm11.904.288.224-.48-.16-.448-.384-.32-.512-.224h-4.192l-.192.768-.064.576.096.48.192.48.224.256-.192.288-.32-.32-.416-.704-.256-.96-.096-.864h-.32l-.768.736v1.376l.192.448.288.256.288.224-.16.736-.96.128-.576.32-.448.64-.224.672-.096.768-.16.384-.48.448-.416.64-.384.864-.448 1.152-.064.192.096.192 2.304.704 1.632.448h.96l.736-.32.832-.64.416-.8 3.36-7.2z"/></svg>