<svg height="32" viewBox="0 0 44 32" width="44" xmlns="http://www.w3.org/2000/svg"><path d="m7.776 7.744-.512-.512v-4l.48-.48h2.496l.64-.64h1.536l.64.64h2.88l.288.256h1.056l.32-.32h17.536v-.352h1.024l.416.416h1.472l.32.32v1.088h.672v2.432h-.704v.672l-.288.288.256.256v1.984h-7.936l-.608.992h-8.224l-.256.8-.096.96.032 1.088.192 1.12.064.32-.544.192-.448-1.024-.352-1.568-.096-1.44-.032-.448-.48.064-.544.736-.352.8-.128.992-.064 1.056.32.96.8.832.608.384-.192.448-1.28.288-.864.416-.768.8-.48.896-.16 1.248-.576.352-.576.8-.512 1.184-.512 1.504-.416 1.44-.032.992.032.672-.32.128h-.8l-7.424-1.888-1.152-.608.064-.864 1.696-.096.096-1.728.48-2.24 1.056-2.496 1.664-2.464.992-1.376.832-1.568-.096-.64-.992-.96-.864-.544-.352-.096h-1.984l-.384-.352.736-1.44.96-.352z"/></svg>