<svg height="32" viewBox="0 0 69 32" width="69" xmlns="http://www.w3.org/2000/svg"><path d="m63.84 6.144.352.192v3.072l-.256.288h-9.984v.576l-.288.352h-5.792v.608h5.248l.192.32v.736l-.128.256h-1.856l.416.608.032.32-.064.192-.16.096-.48.032h-6.272l-.32-.32h-.32l-.416.384-.48.896-1.056 2.336-2.208 5.44-.416.608-.544.288-.704.256-.896.16-1.024.096h-5.472v6.016l-.448.448h-1.984l-.192-.224h-.736l-.256-.256v-6.016l-.832-.192-.576-1.184-.352-1.216-.16-2.048.16-2.176.352-1.44.64-1.248.32-1.088.032-.928-.224-.416-2.144-.288-.64-.512h-5.696l-.512.128-2.08.192h-.768l-.288-.288-.608.128-.64.576-4.448 5.952-.512.384-.704.32-.768.16h-.448l-.192.544-1.44.48-.384-.16-.128-.384v-.64l.096-3.232.032-4.128-.128-4.224v-1.664l.256-.704.384-.32h1.44l.384.736h.512l.416.416h.384l.16-.16h19.2v-1.152l.192-.512h.224v-.576h.416l.736.896.288.992.224.032v.32h.288v-.384l.352-.384h7.232v-.512h-1.152l-.288-.16h-.8v-2.816l.416-.416h.704l.48-.384h.416v.32h6.112l.16.128v.384h.416v2.592l-.192.192h-.512v.224h-.384v.544h2.688v.384h6.048l.416.384h1.6l.416.352v.416zm-23.52 7.008v-.352l-.224-.192-.352-.128h-6.272l-.192.48-.064.544.032.512.128.416.256.352-.16.288-.448-.448-.416-.832-.16-.832v-.48h-.672l-.256.096-.16.352-.16.448-.096.736v.608l.224.416.448.32-.032.352-.544.288v5.184l.096.224.256.256.448.096h4.032l.544-.16.448-.384.416-.704 2.752-6.944z"/></svg>