<svg height="32" viewBox="0 0 83 32" width="83" xmlns="http://www.w3.org/2000/svg"><path d="m47.072 10.752h-1.408v-.576h-.768v.32h-.32v.768h2.432l.8.416h30.016l.736.064.128.16v.128l-.128.16-1.088.672q-.768.384-.96 1.12l-.48 4h-.512l-.192-.224-.512-1.824q-.288-.736-.832-.96-.224-.096-1.264-.144t-1.968-.048h-8.672l-6.24.128-5.472.16-3.648.192-1.696.224-.928.288-.544.256-.352.32-.32.576-.448 1.056-.512 1.504-.384 1.344-.192 1.056-.096.896.064.544.096.256 1.184 1.216-.064.608-.16.224-3.328-2.592-.864-.608q-.672-.416-1.184-.416-1.28-.064-2.176.384l-.864.512.096 1.632-.032.128-.064.128q-1.024.8-1.888 1.408l-1.76 1.152q-3.008-.192-6.176-.8l-3.84-.736q-.576-.288-.8-.736l-.16-.896.512-.32.032-1.28.736-.256-.032-.16-.704-.256q0-1.408 1.024-2.912.288-.448.928-1.28t.864-1.248.128-.64q-.192-.48-.848-.832t-1.712-.384q-.704-.032-1.808-.048t-2.704-.048-2.592-.064l-4.736-.128-.96 5.728-.32.736-.352.192h-.896l-.992-1.12-.128-5.696-.608-3.36.256-2.816q.16-.544.992-.704l1.568-.256q6.368-.256 10.56-.8l10.912-1.664-1.92-.992.768-.416 1.024-.064.128-.064.096-.128v-1.568l.16-.576h1.152l.288.608.448 1.152.928.32.16.288 1.856.288 3.136-.416.32-.16.32-.32.224-.288.096.128v1.376l-.064.256q2.176.128 4.704.608.96.192 2.064.432t1.776.368 1.216.192 2.064.112 2.768.048h1.248l.8.736v.544h23.648l.448.224v.192h-.224l-.128.512h-30.112l-.768.48h-2.496v.768h.32v.288h.768v-.544h1.408l.8-.48h30.016l.288.544h.896v1.664h-.864l-.352.544h-29.888zm-11.584 6.88q.608-.32.608-1.056 0-.352-.288-.72t-.544-.56l-.288-.224q-.8-.8-2.496-.8-1.088 0-2.56-.064.064.608.16.864.096.288.288.608t.352.512l.16.16-.32.384q-.864-.448-1.376-1.216-.384-.512-.64-1.408-.48.096-.672.384-.224.288-.4.816t-.144.752q0 .064.096.304t.144.432.032.384-.176.256q-1.728.992-1.92 1.696-.096.352-.064.752t-.16.464q-.64.832-.64 1.504l4.768-.096h.288z"/></svg>